%TF.GenerationSoftware,KiCad,Pcbnew,9.0.6-9.0.6~ubuntu24.04.1*%
%TF.CreationDate,2025-11-28T01:09:22+01:00*%
%TF.ProjectId,HVAC_STM32F7_PCB,48564143-5f53-4544-9d33-3246375f5043,rev?*%
%TF.SameCoordinates,Original*%
%TF.FileFunction,Paste,Top*%
%TF.FilePolarity,Positive*%
%FSLAX46Y46*%
G04 Gerber Fmt 4.6, Leading zero omitted, Abs format (unit mm)*
G04 Created by KiCad (PCBNEW 9.0.6-9.0.6~ubuntu24.04.1) date 2025-11-28 01:09:22*
%MOMM*%
%LPD*%
G01*
G04 APERTURE LIST*
G04 Aperture macros list*
%AMRoundRect*
0 Rectangle with rounded corners*
0 $1 Rounding radius*
0 $2 $3 $4 $5 $6 $7 $8 $9 X,Y pos of 4 corners*
0 Add a 4 corners polygon primitive as box body*
4,1,4,$2,$3,$4,$5,$6,$7,$8,$9,$2,$3,0*
0 Add four circle primitives for the rounded corners*
1,1,$1+$1,$2,$3*
1,1,$1+$1,$4,$5*
1,1,$1+$1,$6,$7*
1,1,$1+$1,$8,$9*
0 Add four rect primitives between the rounded corners*
20,1,$1+$1,$2,$3,$4,$5,0*
20,1,$1+$1,$4,$5,$6,$7,0*
20,1,$1+$1,$6,$7,$8,$9,0*
20,1,$1+$1,$8,$9,$2,$3,0*%
%AMOutline4P*
0 Free polygon, 4 corners , with rotation*
0 The origin of the aperture is its center*
0 number of corners: always 4*
0 $1 to $8 corner X, Y*
0 $9 Rotation angle, in degrees counterclockwise*
0 create outline with 4 corners*
4,1,4,$1,$2,$3,$4,$5,$6,$7,$8,$1,$2,$9*%
G04 Aperture macros list end*
%ADD10R,1.270000X0.610000*%
%ADD11R,3.810000X3.910000*%
%ADD12R,1.020000X0.610000*%
%ADD13RoundRect,0.250000X0.450000X-0.350000X0.450000X0.350000X-0.450000X0.350000X-0.450000X-0.350000X0*%
%ADD14R,1.500000X2.400000*%
%ADD15RoundRect,0.250000X0.350000X0.450000X-0.350000X0.450000X-0.350000X-0.450000X0.350000X-0.450000X0*%
%ADD16RoundRect,0.250000X-0.337500X-0.475000X0.337500X-0.475000X0.337500X0.475000X-0.337500X0.475000X0*%
%ADD17RoundRect,0.250000X-0.450000X0.350000X-0.450000X-0.350000X0.450000X-0.350000X0.450000X0.350000X0*%
%ADD18RoundRect,0.100000X0.637500X0.100000X-0.637500X0.100000X-0.637500X-0.100000X0.637500X-0.100000X0*%
%ADD19RoundRect,0.250000X0.475000X-0.337500X0.475000X0.337500X-0.475000X0.337500X-0.475000X-0.337500X0*%
%ADD20R,5.400000X2.900000*%
%ADD21RoundRect,0.250001X0.612499X0.899999X-0.612499X0.899999X-0.612499X-0.899999X0.612499X-0.899999X0*%
%ADD22Outline4P,-2.150000X-1.800000X2.150000X-0.800000X2.150000X0.800000X-2.150000X1.800000X270.000000*%
%ADD23Outline4P,-2.150000X-1.800000X2.150000X-0.800000X2.150000X0.800000X-2.150000X1.800000X90.000000*%
%ADD24RoundRect,0.250000X0.400000X1.450000X-0.400000X1.450000X-0.400000X-1.450000X0.400000X-1.450000X0*%
%ADD25RoundRect,0.250000X-0.475000X0.337500X-0.475000X-0.337500X0.475000X-0.337500X0.475000X0.337500X0*%
%ADD26RoundRect,0.249999X-0.737501X-2.450001X0.737501X-2.450001X0.737501X2.450001X-0.737501X2.450001X0*%
%ADD27RoundRect,0.250000X-1.500000X-0.900000X1.500000X-0.900000X1.500000X0.900000X-1.500000X0.900000X0*%
%ADD28RoundRect,0.250001X-0.899999X0.612499X-0.899999X-0.612499X0.899999X-0.612499X0.899999X0.612499X0*%
%ADD29RoundRect,0.051250X-0.153750X0.733750X-0.153750X-0.733750X0.153750X-0.733750X0.153750X0.733750X0*%
%ADD30RoundRect,0.250001X-0.462499X-1.074999X0.462499X-1.074999X0.462499X1.074999X-0.462499X1.074999X0*%
%ADD31RoundRect,0.075000X-0.075000X0.662500X-0.075000X-0.662500X0.075000X-0.662500X0.075000X0.662500X0*%
%ADD32RoundRect,0.250000X-0.350000X-0.450000X0.350000X-0.450000X0.350000X0.450000X-0.350000X0.450000X0*%
%ADD33RoundRect,0.250000X-2.025000X-2.375000X2.025000X-2.375000X2.025000X2.375000X-2.025000X2.375000X0*%
%ADD34RoundRect,0.250000X-2.050000X-0.300000X2.050000X-0.300000X2.050000X0.300000X-2.050000X0.300000X0*%
%ADD35R,2.400000X1.500000*%
%ADD36RoundRect,0.250001X-0.612499X-0.899999X0.612499X-0.899999X0.612499X0.899999X-0.612499X0.899999X0*%
G04 APERTURE END LIST*
D10*
%TO.C,Q1*%
X97535000Y-50810000D03*
X97535000Y-47000000D03*
X97535000Y-48270000D03*
X97535000Y-49540000D03*
D11*
X100895000Y-48905000D03*
D12*
X103000000Y-47000000D03*
X103000000Y-48270000D03*
X103000000Y-49540000D03*
X103000000Y-50810000D03*
%TD*%
D13*
%TO.C,R9*%
X202800000Y-94875000D03*
X202800000Y-92875000D03*
%TD*%
D14*
%TO.C,L2*%
X131300000Y-48400000D03*
X136800000Y-48400000D03*
%TD*%
D15*
%TO.C,R4*%
X87000000Y-49000000D03*
X85000000Y-49000000D03*
%TD*%
D16*
%TO.C,C11*%
X58925000Y-84500000D03*
X61000000Y-84500000D03*
%TD*%
D17*
%TO.C,R7*%
X191800000Y-76875000D03*
X191800000Y-78875000D03*
%TD*%
D13*
%TO.C,R1*%
X78000000Y-101500000D03*
X78000000Y-99500000D03*
%TD*%
D18*
%TO.C,U5*%
X204662500Y-87325000D03*
X204662500Y-86675000D03*
X204662500Y-86025000D03*
X204662500Y-85375000D03*
X204662500Y-84725000D03*
X204662500Y-84075000D03*
X204662500Y-83425000D03*
X198937500Y-83425000D03*
X198937500Y-84075000D03*
X198937500Y-84725000D03*
X198937500Y-85375000D03*
X198937500Y-86025000D03*
X198937500Y-86675000D03*
X198937500Y-87325000D03*
%TD*%
D19*
%TO.C,C20*%
X194550000Y-78912500D03*
X194550000Y-76837500D03*
%TD*%
D17*
%TO.C,RG4*%
X208300000Y-92875000D03*
X208300000Y-94875000D03*
%TD*%
D20*
%TO.C,L1*%
X168600000Y-46975000D03*
X168600000Y-56875000D03*
%TD*%
D17*
%TO.C,RF3*%
X200050000Y-76875000D03*
X200050000Y-78875000D03*
%TD*%
%TO.C,RG7*%
X208550000Y-119875000D03*
X208550000Y-121875000D03*
%TD*%
%TO.C,RF4*%
X211050000Y-92875000D03*
X211050000Y-94875000D03*
%TD*%
D21*
%TO.C,C4*%
X136562500Y-53450000D03*
X132237500Y-53450000D03*
%TD*%
D18*
%TO.C,U6*%
X205412500Y-133075000D03*
X205412500Y-132425000D03*
X205412500Y-131775000D03*
X205412500Y-131125000D03*
X205412500Y-130475000D03*
X205412500Y-129825000D03*
X205412500Y-129175000D03*
X199687500Y-129175000D03*
X199687500Y-129825000D03*
X199687500Y-130475000D03*
X199687500Y-131125000D03*
X199687500Y-131775000D03*
X199687500Y-132425000D03*
X199687500Y-133075000D03*
%TD*%
D16*
%TO.C,C32*%
X207175000Y-84750000D03*
X209250000Y-84750000D03*
%TD*%
D22*
%TO.C,D1*%
X150200000Y-56650000D03*
D23*
X150200000Y-63050000D03*
%TD*%
D21*
%TO.C,C1*%
X136462500Y-42450000D03*
X132137500Y-42450000D03*
%TD*%
%TO.C,C6*%
X174162500Y-43000000D03*
X169837500Y-43000000D03*
%TD*%
D17*
%TO.C,R13*%
X203050000Y-140875000D03*
X203050000Y-142875000D03*
%TD*%
D24*
%TO.C,F2*%
X195225000Y-37500000D03*
X190775000Y-37500000D03*
%TD*%
D17*
%TO.C,R6*%
X191700000Y-92950000D03*
X191700000Y-94950000D03*
%TD*%
D25*
%TO.C,C17*%
X203550000Y-105087500D03*
X203550000Y-107162500D03*
%TD*%
D17*
%TO.C,RG5*%
X197550000Y-140875000D03*
X197550000Y-142875000D03*
%TD*%
D15*
%TO.C,R16*%
X135100000Y-56250000D03*
X133100000Y-56250000D03*
%TD*%
D26*
%TO.C,C29*%
X198112500Y-42250000D03*
X203387500Y-42250000D03*
%TD*%
D17*
%TO.C,RF7*%
X211300000Y-119875000D03*
X211300000Y-121875000D03*
%TD*%
D19*
%TO.C,C12*%
X68000000Y-86537500D03*
X68000000Y-84462500D03*
%TD*%
D17*
%TO.C,R8*%
X202800000Y-76875000D03*
X202800000Y-78875000D03*
%TD*%
D16*
%TO.C,C30*%
X202462500Y-50500000D03*
X204537500Y-50500000D03*
%TD*%
D25*
%TO.C,C9*%
X75500000Y-84462500D03*
X75500000Y-86537500D03*
%TD*%
D27*
%TO.C,D3*%
X75400000Y-50190000D03*
X80800000Y-50190000D03*
%TD*%
D19*
%TO.C,C25*%
X205800000Y-142912500D03*
X205800000Y-140837500D03*
%TD*%
%TO.C,C24*%
X205800000Y-121912500D03*
X205800000Y-119837500D03*
%TD*%
D17*
%TO.C,RF2*%
X200050000Y-92875000D03*
X200050000Y-94875000D03*
%TD*%
%TO.C,R15*%
X167350000Y-60625000D03*
X167350000Y-62625000D03*
%TD*%
D19*
%TO.C,C11X7R1*%
X71500000Y-86537500D03*
X71500000Y-84462500D03*
%TD*%
D28*
%TO.C,C27*%
X118800000Y-57437500D03*
X118800000Y-61762500D03*
%TD*%
D16*
%TO.C,C28*%
X197962500Y-36500000D03*
X200037500Y-36500000D03*
%TD*%
D19*
%TO.C,C13*%
X65000000Y-86537500D03*
X65000000Y-84462500D03*
%TD*%
D29*
%TO.C,U3*%
X200250000Y-103255000D03*
X199600000Y-103255000D03*
X198950000Y-103255000D03*
X198300000Y-103255000D03*
X197650000Y-103255000D03*
X197000000Y-103255000D03*
X196350000Y-103255000D03*
X196350000Y-108995000D03*
X197000000Y-108995000D03*
X197650000Y-108995000D03*
X198300000Y-108995000D03*
X198950000Y-108995000D03*
X199600000Y-108995000D03*
X200250000Y-108995000D03*
%TD*%
D17*
%TO.C,RG6*%
X197550000Y-119875000D03*
X197550000Y-121875000D03*
%TD*%
%TO.C,R12*%
X203050000Y-119875000D03*
X203050000Y-121875000D03*
%TD*%
D30*
%TO.C,FB1*%
X121712500Y-57500000D03*
X124687500Y-57500000D03*
%TD*%
D31*
%TO.C,U7*%
X72000000Y-97637500D03*
X71500000Y-97637500D03*
X71000000Y-97637500D03*
X70500000Y-97637500D03*
X70000000Y-97637500D03*
X69500000Y-97637500D03*
X69000000Y-97637500D03*
X68500000Y-97637500D03*
X68000000Y-97637500D03*
X67500000Y-97637500D03*
X67000000Y-97637500D03*
X66500000Y-97637500D03*
X66000000Y-97637500D03*
X65500000Y-97637500D03*
X65000000Y-97637500D03*
X64500000Y-97637500D03*
X64000000Y-97637500D03*
X63500000Y-97637500D03*
X63000000Y-97637500D03*
X63000000Y-103362500D03*
X63500000Y-103362500D03*
X64000000Y-103362500D03*
X64500000Y-103362500D03*
X65000000Y-103362500D03*
X65500000Y-103362500D03*
X66000000Y-103362500D03*
X66500000Y-103362500D03*
X67000000Y-103362500D03*
X67500000Y-103362500D03*
X68000000Y-103362500D03*
X68500000Y-103362500D03*
X69000000Y-103362500D03*
X69500000Y-103362500D03*
X70000000Y-103362500D03*
X70500000Y-103362500D03*
X71000000Y-103362500D03*
X71500000Y-103362500D03*
X72000000Y-103362500D03*
%TD*%
D32*
%TO.C,R14*%
X115300000Y-38400000D03*
X117300000Y-38400000D03*
%TD*%
D17*
%TO.C,RG3*%
X197300000Y-76875000D03*
X197300000Y-78875000D03*
%TD*%
D13*
%TO.C,R3*%
X207650000Y-106237500D03*
X207650000Y-104237500D03*
%TD*%
D17*
%TO.C,R10*%
X192050000Y-140875000D03*
X192050000Y-142875000D03*
%TD*%
D33*
%TO.C,U2*%
X185000000Y-44050000D03*
X185000000Y-49600000D03*
X189850000Y-44050000D03*
X189850000Y-49600000D03*
D34*
X178275000Y-43425000D03*
X178275000Y-45125000D03*
X178275000Y-46825000D03*
X178275000Y-48525000D03*
X178275000Y-50225000D03*
%TD*%
D17*
%TO.C,RF8*%
X211300000Y-140875000D03*
X211300000Y-142875000D03*
%TD*%
D28*
%TO.C,C16*%
X115500000Y-57437500D03*
X115500000Y-61762500D03*
%TD*%
D35*
%TO.C,L3*%
X117200000Y-49150000D03*
X117200000Y-54650000D03*
%TD*%
D17*
%TO.C,RF5*%
X200300000Y-140875000D03*
X200300000Y-142875000D03*
%TD*%
D22*
%TO.C,D2*%
X193100000Y-57200000D03*
D23*
X193100000Y-63600000D03*
%TD*%
D17*
%TO.C,RF6*%
X200300000Y-119875000D03*
X200300000Y-121875000D03*
%TD*%
D19*
%TO.C,C14*%
X209900000Y-106275000D03*
X209900000Y-104200000D03*
%TD*%
D17*
%TO.C,RG2*%
X197300000Y-92875000D03*
X197300000Y-94875000D03*
%TD*%
%TO.C,RG1*%
X208300000Y-76837500D03*
X208300000Y-78837500D03*
%TD*%
D16*
%TO.C,C33*%
X207712500Y-130750000D03*
X209787500Y-130750000D03*
%TD*%
D19*
%TO.C,C23*%
X194800000Y-121912500D03*
X194800000Y-119837500D03*
%TD*%
%TO.C,C21*%
X205550000Y-94912500D03*
X205550000Y-92837500D03*
%TD*%
D13*
%TO.C,R17*%
X198750000Y-50500000D03*
X198750000Y-48500000D03*
%TD*%
D17*
%TO.C,R11*%
X192050000Y-119875000D03*
X192050000Y-121875000D03*
%TD*%
D33*
%TO.C,U1*%
X147500000Y-43750000D03*
X147500000Y-49300000D03*
X152350000Y-43750000D03*
X152350000Y-49300000D03*
D34*
X140775000Y-43125000D03*
X140775000Y-44825000D03*
X140775000Y-46525000D03*
X140775000Y-48225000D03*
X140775000Y-49925000D03*
%TD*%
D19*
%TO.C,C18*%
X205550000Y-78875000D03*
X205550000Y-76800000D03*
%TD*%
%TO.C,C10*%
X81000000Y-101537500D03*
X81000000Y-99462500D03*
%TD*%
D17*
%TO.C,RG8*%
X208550000Y-140875000D03*
X208550000Y-142875000D03*
%TD*%
D36*
%TO.C,C26*%
X115137500Y-46600000D03*
X119462500Y-46600000D03*
%TD*%
D28*
%TO.C,C7*%
X177950000Y-53962500D03*
X177950000Y-58287500D03*
%TD*%
D19*
%TO.C,C19*%
X194450000Y-94987500D03*
X194450000Y-92912500D03*
%TD*%
D17*
%TO.C,RF1*%
X211050000Y-76837500D03*
X211050000Y-78837500D03*
%TD*%
D32*
%TO.C,R2*%
X58982500Y-89005000D03*
X60982500Y-89005000D03*
%TD*%
D16*
%TO.C,C31*%
X202712500Y-54000000D03*
X204787500Y-54000000D03*
%TD*%
D19*
%TO.C,C22*%
X194800000Y-142912500D03*
X194800000Y-140837500D03*
%TD*%
M02*
