M48
; DRILL file {KiCad 9.0.6-9.0.6~ubuntu24.04.1} date 2025-11-28T01:09:26+0100
; FORMAT={-:-/ absolute / metric / decimal}
; #@! TF.CreationDate,2025-11-28T01:09:26+01:00
; #@! TF.GenerationSoftware,Kicad,Pcbnew,9.0.6-9.0.6~ubuntu24.04.1
; #@! TF.FileFunction,Plated,1,4,PTH
FMAT,2
METRIC
; #@! TA.AperFunction,Plated,PTH,ViaDrill
T1C0.300
; #@! TA.AperFunction,Plated,PTH,ViaDrill
T2C0.400
; #@! TA.AperFunction,Plated,PTH,ComponentDrill
T3C0.800
; #@! TA.AperFunction,Plated,PTH,ComponentDrill
T4C0.900
; #@! TA.AperFunction,Plated,PTH,ComponentDrill
T5C1.000
; #@! TA.AperFunction,Plated,PTH,ComponentDrill
T6C1.100
; #@! TA.AperFunction,Plated,PTH,ComponentDrill
T7C1.200
; #@! TA.AperFunction,Plated,PTH,ComponentDrill
T8C1.400
; #@! TA.AperFunction,Plated,PTH,ComponentDrill
T9C1.780
; #@! TA.AperFunction,Plated,PTH,ComponentDrill
T10C2.600
; #@! TA.AperFunction,Plated,PTH,ViaDrill
T11C3.200
%
G90
G05
T1
X46.9Y-99.9
X48.9Y-103.2
X50.5Y-103.0
X52.8Y-96.5
X55.1Y-95.1
X55.3Y-91.6
X56.5Y-144.0
X57.9Y-51.8
X58.982Y-84.505
X58.982Y-89.005
X60.5Y-94.3
X64.0Y-130.9
X64.5Y-99.0
X65.323Y-99.622
X66.0Y-117.2
X66.1Y-99.1
X67.097Y-99.113
X67.7Y-132.2
X68.0Y-86.537
X68.0Y-96.253
X68.0Y-102.0
X68.8Y-99.085
X68.95Y-95.95
X69.0Y-103.362
X69.4Y-123.1
X70.0Y-96.0
X71.0Y-104.8
X71.5Y-49.0
X71.5Y-50.0
X71.5Y-51.0
X71.5Y-86.537
X72.5Y-49.0
X72.5Y-50.0
X72.5Y-51.0
X72.5Y-103.5
X75.0Y-98.5
X75.5Y-84.462
X75.5Y-112.5
X76.4Y-105.8
X76.7Y-74.7
X79.7Y-117.1
X81.0Y-70.4
X81.0Y-99.462
X81.8Y-116.127
X82.7Y-117.4
X84.0Y-46.5
X84.0Y-47.5
X85.0Y-46.5
X85.0Y-47.5
X91.0Y-60.5
X91.0Y-63.0
X92.0Y-60.5
X92.0Y-63.0
X93.0Y-60.5
X93.0Y-63.0
X94.0Y-60.5
X94.0Y-63.0
X97.0Y-63.0
X97.0Y-64.0
X98.0Y-63.0
X98.0Y-64.0
X106.5Y-50.5
X106.5Y-51.5
X107.5Y-50.5
X107.5Y-51.5
X111.0Y-50.5
X111.0Y-51.5
X112.5Y-59.5
X112.5Y-60.5
X113.5Y-59.5
X113.5Y-60.5
X115.0Y-60.0
X116.0Y-60.0
X118.5Y-60.0
X119.5Y-60.0
X121.0Y-45.5
X121.0Y-46.5
X121.0Y-47.5
X121.0Y-61.5
X121.0Y-62.5
X122.0Y-45.5
X122.0Y-46.5
X122.0Y-47.5
X122.5Y-35.5
X122.5Y-36.5
X122.5Y-40.0
X122.5Y-41.0
X123.5Y-35.5
X123.5Y-36.5
X123.5Y-40.0
X123.5Y-41.0
X133.5Y-59.5
X133.5Y-62.5
X134.5Y-59.5
X134.5Y-62.5
X137.5Y-59.5
X138.5Y-33.5
X138.5Y-34.5
X138.5Y-35.5
X138.5Y-60.5
X139.5Y-33.5
X139.5Y-34.5
X139.5Y-35.5
X140.5Y-68.0
X140.5Y-69.5
X142.5Y-68.0
X142.5Y-69.5
X144.0Y-43.5
X144.0Y-44.5
X144.0Y-45.5
X144.0Y-46.5
X144.0Y-47.5
X144.0Y-48.5
X144.5Y-60.5
X145.5Y-59.5
X146.5Y-63.0
X146.5Y-64.0
X146.5Y-65.0
X154.0Y-63.0
X154.0Y-64.0
X154.0Y-65.0
X155.5Y-41.0
X155.5Y-42.0
X155.5Y-43.0
X156.5Y-41.0
X156.5Y-42.0
X156.5Y-43.0
X172.0Y-61.5
X172.0Y-64.5
X173.0Y-61.5
X173.0Y-64.5
X175.5Y-34.0
X175.5Y-35.0
X175.5Y-36.0
X176.0Y-58.0
X176.0Y-59.0
X176.5Y-34.0
X176.5Y-35.0
X176.5Y-36.0
X176.6Y-105.2
X176.8Y-135.6
X177.688Y-129.487
X177.8Y-106.375
X179.6Y-109.0
X180.0Y-58.0
X180.0Y-59.0
X181.5Y-43.0
X181.5Y-44.0
X181.5Y-45.0
X181.5Y-46.0
X181.5Y-47.0
X181.5Y-48.0
X181.5Y-49.0
X188.5Y-60.0
X189.0Y-59.0
X189.0Y-63.5
X189.0Y-64.5
X189.0Y-65.5
X191.8Y-77.125
X191.8Y-81.0
X193.0Y-43.0
X193.0Y-44.0
X193.0Y-45.0
X193.05Y-97.875
X193.5Y-83.425
X194.0Y-42.0
X194.0Y-43.0
X194.0Y-44.0
X194.0Y-45.0
X194.0Y-46.0
X194.45Y-94.987
X194.8Y-122.125
X194.8Y-131.7
X194.8Y-142.912
X194.9Y-138.475
X195.3Y-85.125
X196.0Y-118.625
X196.05Y-81.375
X196.35Y-108.995
X196.5Y-137.275
X197.0Y-63.5
X197.0Y-64.5
X197.0Y-65.5
X197.05Y-84.125
X197.059Y-92.875
X197.2Y-111.28
X197.65Y-103.255
X197.65Y-108.995
X197.898Y-139.848
X198.04Y-91.617
X198.3Y-102.125
X198.5Y-132.7
X198.55Y-87.375
X198.55Y-89.175
X198.8Y-110.625
X198.8Y-118.125
X199.3Y-86.652
X199.3Y-89.875
X199.6Y-102.125
X199.688Y-133.075
X199.8Y-97.875
X200.05Y-76.875
X200.05Y-94.875
X200.25Y-103.255
X200.25Y-108.995
X200.3Y-83.875
X200.3Y-105.875
X200.3Y-119.875
X200.3Y-122.125
X200.3Y-140.875
X200.3Y-142.875
X200.5Y-117.0
X200.752Y-129.825
X201.05Y-123.375
X201.5Y-36.0
X201.5Y-37.0
X201.55Y-105.125
X201.55Y-106.625
X201.564Y-109.139
X201.838Y-128.838
X202.1Y-123.878
X202.2Y-100.625
X202.281Y-129.703
X202.5Y-36.0
X202.5Y-37.0
X202.55Y-86.375
X202.7Y-130.475
X202.8Y-76.625
X202.8Y-92.875
X202.8Y-94.875
X202.801Y-78.875
X202.801Y-85.693
X203.05Y-121.875
X203.1Y-138.475
X203.6Y-100.8
X203.7Y-130.475
X205.0Y-49.0
X205.0Y-81.0
X205.135Y-133.075
X205.3Y-144.475
X205.412Y-131.775
X205.432Y-129.092
X205.5Y-42.5
X205.5Y-43.5
X205.5Y-44.5
X205.5Y-52.5
X205.762Y-142.875
X205.8Y-84.625
X206.0Y-49.0
X206.0Y-50.0
X206.0Y-51.0
X206.5Y-42.5
X206.5Y-43.5
X206.5Y-44.5
X206.5Y-52.5
X206.5Y-54.0
X207.673Y-80.0
X207.673Y-83.227
X207.9Y-132.475
X208.3Y-76.837
X208.3Y-86.375
X208.3Y-89.875
X208.3Y-92.875
X208.3Y-140.875
X208.55Y-119.875
X208.55Y-123.0
X211.05Y-78.875
X211.05Y-87.375
X211.05Y-89.125
X211.05Y-94.625
X211.3Y-121.875
X212.75Y-130.129
X217.0Y-74.5
X217.0Y-80.0
X218.0Y-82.5
X218.5Y-61.0
X218.5Y-127.6
X219.5Y-78.0
X220.0Y-46.5
X220.0Y-102.0
T2
X45.6Y-95.6
X48.1Y-116.5
X49.5Y-142.4
X56.2Y-142.3
X64.1Y-50.9
X66.7Y-88.7
X68.5Y-37.0
X68.5Y-38.5
X68.5Y-40.0
X70.4Y-80.1
X74.0Y-90.4
X74.5Y-37.0
X74.5Y-38.5
X74.5Y-40.0
X75.5Y-86.537
X79.3Y-75.0
X81.275Y-131.025
X82.25Y-121.85
X83.4Y-128.9
X87.7Y-129.5
X90.1Y-51.19
X100.895Y-48.905
X110.0Y-99.3
X114.4Y-75.6
X125.5Y-57.4
X126.0Y-40.5
X141.5Y-99.0
X167.2Y-72.9
X191.25Y-70.25
X191.5Y-133.5
X193.25Y-64.0
X194.55Y-76.837
X197.5Y-57.8
X202.0Y-67.25
X202.712Y-54.0
X207.175Y-84.75
X212.0Y-73.75
X212.0Y-85.0
T3
X109.2Y-47.9
X109.2Y-51.7
X141.1Y-34.303
X141.1Y-38.103
X141.6Y-54.847
X141.6Y-58.647
X178.3Y-34.803
X178.3Y-38.603
X184.55Y-55.422
X184.55Y-59.222
T4
X120.66Y-38.3
X123.2Y-38.3
X132.06Y-61.05
X134.6Y-61.05
X170.91Y-63.025
X173.45Y-63.025
T5
X63.52Y-60.0
X63.52Y-62.54
X66.06Y-60.0
X66.06Y-62.54
X68.6Y-60.0
X68.6Y-62.54
X71.14Y-60.0
X71.14Y-62.54
X73.68Y-60.0
X73.68Y-62.54
X76.22Y-60.0
X76.22Y-62.54
X78.76Y-60.0
X78.76Y-62.54
X81.3Y-60.0
X81.3Y-62.54
X125.29Y-93.675
X125.29Y-96.215
X125.29Y-98.755
X125.29Y-101.295
X125.29Y-103.835
X125.29Y-106.375
X125.29Y-108.915
X125.29Y-111.455
X125.29Y-113.995
X125.29Y-116.535
X125.29Y-120.595
X125.29Y-123.135
X125.29Y-125.675
X125.29Y-128.215
X125.29Y-130.755
X125.29Y-133.295
X125.29Y-135.835
X125.29Y-138.375
X173.55Y-102.815
X173.55Y-105.355
X173.55Y-107.895
X173.55Y-110.435
X173.55Y-112.975
X173.55Y-115.515
X173.55Y-118.055
X173.55Y-120.595
X173.55Y-125.675
X173.55Y-128.215
X173.55Y-130.755
X173.55Y-133.295
X173.55Y-135.835
X173.55Y-138.375
T6
X93.5Y-47.96
X93.5Y-50.5
T7
X39.5Y-62.0
X39.5Y-65.5
X39.5Y-69.0
X39.5Y-72.5
X39.5Y-79.0
X39.5Y-82.5
X39.5Y-86.0
X39.5Y-89.5
X39.5Y-96.0
X39.5Y-99.5
X39.5Y-103.0
X39.5Y-106.5
X39.5Y-113.0
X39.5Y-116.5
X39.5Y-120.0
X39.5Y-123.5
X39.5Y-130.0
X39.5Y-133.5
X39.5Y-137.0
X39.5Y-140.5
X39.55Y-45.0
X39.55Y-48.5
X39.55Y-52.0
X39.55Y-55.5
X45.0Y-149.0
X47.982Y-38.108
X48.5Y-149.0
X51.482Y-38.108
X52.0Y-149.0
X54.982Y-38.108
X55.5Y-149.0
X58.482Y-38.108
X224.3Y-42.375
X224.3Y-45.875
X224.3Y-49.375
X224.3Y-56.375
X224.3Y-59.875
X224.3Y-63.375
X224.3Y-70.375
X224.3Y-73.875
X224.3Y-77.375
X224.3Y-84.375
X224.3Y-87.875
X224.3Y-91.375
X224.3Y-98.375
X224.3Y-101.875
X224.3Y-105.375
X224.3Y-112.375
X224.3Y-115.875
X224.3Y-119.375
X224.3Y-126.375
X224.3Y-129.875
X224.3Y-133.375
X224.3Y-140.375
X224.3Y-143.875
X224.3Y-147.375
T8
X101.7Y-41.69
X106.4Y-41.69
X111.1Y-41.69
T9
X82.138Y-40.19
X82.138Y-43.59
X92.057Y-40.19
X92.057Y-43.59
T10
X64.55Y-74.375
X64.55Y-146.375
X186.55Y-74.375
X186.55Y-146.375
T11
X35.0Y-35.0
X35.0Y-157.0
X138.0Y-96.0
X227.0Y-35.0
X227.0Y-157.0
T5
G00X66.807Y-41.4
M15
G01X66.807Y-43.4
M16
G05
G00X72.507Y-39.4
M15
G01X70.507Y-39.4
M16
G05
G00X72.507Y-45.4
M15
G01X70.507Y-45.4
M16
G05
M30
