%TF.GenerationSoftware,KiCad,Pcbnew,9.0.6-9.0.6~ubuntu24.04.1*%
%TF.CreationDate,2025-12-02T17:26:12+01:00*%
%TF.ProjectId,HVAC_STM32F7_PCB,48564143-5f53-4544-9d33-3246375f5043,rev?*%
%TF.SameCoordinates,Original*%
%TF.FileFunction,Copper,L3,Inr*%
%TF.FilePolarity,Positive*%
%FSLAX46Y46*%
G04 Gerber Fmt 4.6, Leading zero omitted, Abs format (unit mm)*
G04 Created by KiCad (PCBNEW 9.0.6-9.0.6~ubuntu24.04.1) date 2025-12-02 17:26:12*
%MOMM*%
%LPD*%
G01*
G04 APERTURE LIST*
G04 Aperture macros list*
%AMRoundRect*
0 Rectangle with rounded corners*
0 $1 Rounding radius*
0 $2 $3 $4 $5 $6 $7 $8 $9 X,Y pos of 4 corners*
0 Add a 4 corners polygon primitive as box body*
4,1,4,$2,$3,$4,$5,$6,$7,$8,$9,$2,$3,0*
0 Add four circle primitives for the rounded corners*
1,1,$1+$1,$2,$3*
1,1,$1+$1,$4,$5*
1,1,$1+$1,$6,$7*
1,1,$1+$1,$8,$9*
0 Add four rect primitives between the rounded corners*
20,1,$1+$1,$2,$3,$4,$5,0*
20,1,$1+$1,$4,$5,$6,$7,0*
20,1,$1+$1,$6,$7,$8,$9,0*
20,1,$1+$1,$8,$9,$2,$3,0*%
G04 Aperture macros list end*
%TA.AperFunction,ComponentPad*%
%ADD10C,2.000000*%
%TD*%
%TA.AperFunction,ComponentPad*%
%ADD11RoundRect,0.250000X-1.550000X0.650000X-1.550000X-0.650000X1.550000X-0.650000X1.550000X0.650000X0*%
%TD*%
%TA.AperFunction,ComponentPad*%
%ADD12O,3.600000X1.800000*%
%TD*%
%TA.AperFunction,ComponentPad*%
%ADD13RoundRect,0.250000X-0.650000X-1.550000X0.650000X-1.550000X0.650000X1.550000X-0.650000X1.550000X0*%
%TD*%
%TA.AperFunction,ComponentPad*%
%ADD14O,1.800000X3.600000*%
%TD*%
%TA.AperFunction,ComponentPad*%
%ADD15C,2.780000*%
%TD*%
%TA.AperFunction,ComponentPad*%
%ADD16RoundRect,0.250000X1.550000X-0.650000X1.550000X0.650000X-1.550000X0.650000X-1.550000X-0.650000X0*%
%TD*%
%TA.AperFunction,ComponentPad*%
%ADD17RoundRect,0.250000X0.550000X-0.550000X0.550000X0.550000X-0.550000X0.550000X-0.550000X-0.550000X0*%
%TD*%
%TA.AperFunction,ComponentPad*%
%ADD18C,1.600000*%
%TD*%
%TA.AperFunction,ComponentPad*%
%ADD19R,1.700000X1.700000*%
%TD*%
%TA.AperFunction,ComponentPad*%
%ADD20C,1.700000*%
%TD*%
%TA.AperFunction,ComponentPad*%
%ADD21RoundRect,0.249999X-0.850001X0.850001X-0.850001X-0.850001X0.850001X-0.850001X0.850001X0.850001X0*%
%TD*%
%TA.AperFunction,ComponentPad*%
%ADD22C,2.200000*%
%TD*%
%TA.AperFunction,ComponentPad*%
%ADD23R,2.200000X2.000000*%
%TD*%
%TA.AperFunction,ComponentPad*%
%ADD24O,2.200000X2.000000*%
%TD*%
%TA.AperFunction,ComponentPad*%
%ADD25C,3.540000*%
%TD*%
%TA.AperFunction,ComponentPad*%
%ADD26RoundRect,0.250000X-0.550000X0.550000X-0.550000X-0.550000X0.550000X-0.550000X0.550000X0.550000X0*%
%TD*%
%TA.AperFunction,ComponentPad*%
%ADD27C,2.600000*%
%TD*%
%TA.AperFunction,ComponentPad*%
%ADD28R,3.500000X3.500000*%
%TD*%
%TA.AperFunction,ComponentPad*%
%ADD29RoundRect,0.750000X-1.000000X0.750000X-1.000000X-0.750000X1.000000X-0.750000X1.000000X0.750000X0*%
%TD*%
%TA.AperFunction,ComponentPad*%
%ADD30RoundRect,0.875000X-0.875000X0.875000X-0.875000X-0.875000X0.875000X-0.875000X0.875000X0.875000X0*%
%TD*%
%TA.AperFunction,ComponentPad*%
%ADD31R,1.800000X1.800000*%
%TD*%
%TA.AperFunction,ComponentPad*%
%ADD32C,1.800000*%
%TD*%
%TA.AperFunction,ComponentPad*%
%ADD33RoundRect,0.250000X0.650000X1.550000X-0.650000X1.550000X-0.650000X-1.550000X0.650000X-1.550000X0*%
%TD*%
%TA.AperFunction,ViaPad*%
%ADD34C,0.900000*%
%TD*%
%TA.AperFunction,ViaPad*%
%ADD35C,1.000000*%
%TD*%
%TA.AperFunction,ViaPad*%
%ADD36C,5.000000*%
%TD*%
%TA.AperFunction,ViaPad*%
%ADD37C,4.000000*%
%TD*%
%TA.AperFunction,ViaPad*%
%ADD38C,1.200000*%
%TD*%
%TA.AperFunction,ViaPad*%
%ADD39C,0.600000*%
%TD*%
%TA.AperFunction,ViaPad*%
%ADD40C,0.800000*%
%TD*%
G04 APERTURE END LIST*
D10*
%TO.N,GND*%
%TO.C,TP4*%
X157500000Y-62750000D03*
%TD*%
%TO.N,GND*%
%TO.C,TP3*%
X209250000Y-61000000D03*
%TD*%
%TO.N,+5V*%
%TO.C,TP1*%
X157500000Y-54750000D03*
%TD*%
%TO.N,+3.3V*%
%TO.C,TP2*%
X198750000Y-58750000D03*
%TD*%
D11*
%TO.N,GNDA*%
%TO.C,J4*%
X39500000Y-62000000D03*
D12*
%TO.N,Net-(J18-Pin_5)*%
X39500000Y-65500000D03*
%TO.N,Net-(J4-SIG)*%
X39500000Y-69000000D03*
%TO.N,+24V*%
X39500000Y-72500000D03*
%TD*%
D13*
%TO.N,GNDA*%
%TO.C,J9*%
X45000000Y-149000000D03*
D14*
%TO.N,Net-(J18-Pin_15)*%
X48500000Y-149000000D03*
%TO.N,Net-(J9-SIG)*%
X52000000Y-149000000D03*
%TO.N,+24V*%
X55500000Y-149000000D03*
%TD*%
D15*
%TO.N,Net-(F1-Pad1)*%
%TO.C,F1*%
X82137500Y-40190000D03*
X82137500Y-43590000D03*
%TO.N,Net-(D3-A2)*%
X92057500Y-40190000D03*
X92057500Y-43590000D03*
%TD*%
D16*
%TO.N,GNDA*%
%TO.C,J27*%
X224300000Y-133375000D03*
D12*
%TO.N,Net-(J27-GND)*%
X224300000Y-129875000D03*
%TO.N,GND*%
X224300000Y-126375000D03*
%TD*%
D17*
%TO.N,+24V*%
%TO.C,C2*%
X141100000Y-38102651D03*
D18*
%TO.N,GND*%
X141100000Y-34302651D03*
%TD*%
D11*
%TO.N,GNDA*%
%TO.C,J7*%
X39500000Y-113000000D03*
D12*
%TO.N,Net-(J18-Pin_11)*%
X39500000Y-116500000D03*
%TO.N,Net-(J7-SIG)*%
X39500000Y-120000000D03*
%TO.N,+24V*%
X39500000Y-123500000D03*
%TD*%
D11*
%TO.N,GNDA*%
%TO.C,J6*%
X39500000Y-96000000D03*
D12*
%TO.N,Net-(J18-Pin_9)*%
X39500000Y-99500000D03*
%TO.N,Net-(J6-SIG)*%
X39500000Y-103000000D03*
%TO.N,+24V*%
X39500000Y-106500000D03*
%TD*%
D19*
%TO.N,Net-(J18-Pin_1)*%
%TO.C,J18*%
X63520000Y-62540000D03*
D20*
%TO.N,GND*%
X63520000Y-60000000D03*
%TO.N,Net-(J18-Pin_3)*%
X66060000Y-62540000D03*
%TO.N,GND*%
X66060000Y-60000000D03*
%TO.N,Net-(J18-Pin_5)*%
X68600000Y-62540000D03*
%TO.N,GND*%
X68600000Y-60000000D03*
%TO.N,Net-(J18-Pin_7)*%
X71140000Y-62540000D03*
%TO.N,GND*%
X71140000Y-60000000D03*
%TO.N,Net-(J18-Pin_9)*%
X73680000Y-62540000D03*
%TO.N,GND*%
X73680000Y-60000000D03*
%TO.N,Net-(J18-Pin_11)*%
X76220000Y-62540000D03*
%TO.N,GND*%
X76220000Y-60000000D03*
%TO.N,Net-(J18-Pin_13)*%
X78760000Y-62540000D03*
%TO.N,GND*%
X78760000Y-60000000D03*
%TO.N,Net-(J18-Pin_15)*%
X81300000Y-62540000D03*
%TO.N,GND*%
X81300000Y-60000000D03*
%TD*%
D21*
%TO.N,Net-(D4-K)*%
%TO.C,D4*%
X93500000Y-47960000D03*
D22*
%TO.N,Net-(D4-A)*%
X93500000Y-50500000D03*
%TD*%
D23*
%TO.N,unconnected-(A1-NC-Pad1)*%
%TO.C,A1*%
X173550000Y-102815000D03*
D24*
%TO.N,unconnected-(A1-IOREF-Pad2)*%
X173550000Y-105355000D03*
%TO.N,unconnected-(A1-~{RESET}-Pad3)*%
X173550000Y-107895000D03*
%TO.N,unconnected-(A1-3V3-Pad4)*%
X173550000Y-110435000D03*
%TO.N,unconnected-(A1-+5V-Pad5)*%
X173550000Y-112975000D03*
%TO.N,GND*%
X173550000Y-115515000D03*
X173550000Y-118055000D03*
%TO.N,+3.3V*%
X173550000Y-120595000D03*
%TO.N,unconnected-(A1-A0-Pad9)*%
X173550000Y-125675000D03*
%TO.N,unconnected-(A1-A1-Pad10)*%
X173550000Y-128215000D03*
%TO.N,MOSI_OUT*%
X173550000Y-130755000D03*
%TO.N,unconnected-(A1-A3-Pad12)*%
X173550000Y-133295000D03*
%TO.N,SCK_OUT*%
X173550000Y-135835000D03*
%TO.N,NSS_OUT*%
X173550000Y-138375000D03*
%TO.N,unconnected-(A1-D0{slash}S6RX-Pad15)*%
X125290000Y-138375000D03*
%TO.N,unconnected-(A1-D1{slash}S6TX-Pad16)*%
X125290000Y-135835000D03*
%TO.N,unconnected-(A1-D2-Pad17)*%
X125290000Y-133295000D03*
%TO.N,unconnected-(A1-D3-Pad18)*%
X125290000Y-130755000D03*
%TO.N,unconnected-(A1-D4-Pad19)*%
X125290000Y-128215000D03*
%TO.N,Net-(A1-D5)*%
X125290000Y-125675000D03*
%TO.N,Net-(A1-D6)*%
X125290000Y-123135000D03*
%TO.N,Net-(A1-D7)*%
X125290000Y-120595000D03*
%TO.N,Net-(A1-D8)*%
X125290000Y-116535000D03*
%TO.N,unconnected-(A1-D9-Pad24)*%
X125290000Y-113995000D03*
%TO.N,unconnected-(A1-D10-Pad25)*%
X125290000Y-111455000D03*
%TO.N,unconnected-(A1-D11-Pad26)*%
X125290000Y-108915000D03*
%TO.N,unconnected-(A1-D12-Pad27)*%
X125290000Y-106375000D03*
%TO.N,unconnected-(A1-D13-Pad28)*%
X125290000Y-103835000D03*
%TO.N,GND*%
X125290000Y-101295000D03*
%TO.N,unconnected-(A1-AREF-Pad30)*%
X125290000Y-98755000D03*
%TO.N,unconnected-(A1-SDA{slash}A4-Pad31)*%
X125290000Y-96215000D03*
%TO.N,unconnected-(A1-SCL{slash}A5-Pad32)*%
X125290000Y-93675000D03*
D25*
%TO.N,N/C*%
X186550000Y-74375000D03*
X64550000Y-74375000D03*
X186550000Y-146375000D03*
X64550000Y-146375000D03*
%TD*%
D17*
%TO.N,+24V*%
%TO.C,C5*%
X178300000Y-38602651D03*
D18*
%TO.N,GND*%
X178300000Y-34802651D03*
%TD*%
D16*
%TO.N,GNDA*%
%TO.C,J24*%
X224300000Y-91375000D03*
D12*
%TO.N,Net-(J24-GND)*%
X224300000Y-87875000D03*
%TO.N,GND*%
X224300000Y-84375000D03*
%TD*%
D26*
%TO.N,+3.3V*%
%TO.C,C8*%
X184550000Y-55422349D03*
D18*
%TO.N,GND*%
X184550000Y-59222349D03*
%TD*%
D11*
%TO.N,GNDA*%
%TO.C,J3*%
X39550000Y-45000000D03*
D12*
%TO.N,Net-(J18-Pin_3)*%
X39550000Y-48500000D03*
%TO.N,Net-(J3-SIG)*%
X39550000Y-52000000D03*
%TO.N,+24V*%
X39550000Y-55500000D03*
%TD*%
D27*
%TO.N,Net-(D4-K)*%
%TO.C,SW1*%
X101700000Y-41690000D03*
%TO.N,Net-(SW1-B)*%
X106400000Y-41690000D03*
%TO.N,N/C*%
X111100000Y-41690000D03*
%TD*%
D28*
%TO.N,Net-(F1-Pad1)*%
%TO.C,J1*%
X71507500Y-45400000D03*
D29*
%TO.N,GND*%
X71507500Y-39400000D03*
D30*
%TO.N,N/C*%
X66807500Y-42400000D03*
%TD*%
D26*
%TO.N,Net-(SW1-B)*%
%TO.C,C15*%
X109200000Y-47900000D03*
D18*
%TO.N,GND*%
X109200000Y-51700000D03*
%TD*%
D31*
%TO.N,GND*%
%TO.C,D7*%
X134600000Y-61050000D03*
D32*
%TO.N,Net-(D7-A)*%
X132060000Y-61050000D03*
%TD*%
D11*
%TO.N,GNDA*%
%TO.C,J5*%
X39500000Y-79000000D03*
D12*
%TO.N,Net-(J18-Pin_7)*%
X39500000Y-82500000D03*
%TO.N,Net-(J5-SIG)*%
X39500000Y-86000000D03*
%TO.N,+24V*%
X39500000Y-89500000D03*
%TD*%
D26*
%TO.N,+5V*%
%TO.C,C3*%
X141600000Y-54847349D03*
D18*
%TO.N,GND*%
X141600000Y-58647349D03*
%TD*%
D33*
%TO.N,GNDA*%
%TO.C,J2*%
X58482500Y-38107500D03*
D14*
%TO.N,Net-(J18-Pin_1)*%
X54982500Y-38107500D03*
%TO.N,Net-(J2-SIG)*%
X51482500Y-38107500D03*
%TO.N,+24V*%
X47982500Y-38107500D03*
%TD*%
D16*
%TO.N,GNDA*%
%TO.C,J23*%
X224300000Y-77375000D03*
D12*
%TO.N,Net-(J23-GND)*%
X224300000Y-73875000D03*
%TO.N,GND*%
X224300000Y-70375000D03*
%TD*%
D16*
%TO.N,GNDA*%
%TO.C,J26*%
X224300000Y-119375000D03*
D12*
%TO.N,Net-(J26-GND)*%
X224300000Y-115875000D03*
%TO.N,GND*%
X224300000Y-112375000D03*
%TD*%
D16*
%TO.N,GNDA*%
%TO.C,J25*%
X224300000Y-105375000D03*
D12*
%TO.N,Net-(J25-GND)*%
X224300000Y-101875000D03*
%TO.N,GND*%
X224300000Y-98375000D03*
%TD*%
D16*
%TO.N,GNDA*%
%TO.C,J22*%
X224300000Y-63375000D03*
D12*
%TO.N,Net-(J22-GND)*%
X224300000Y-59875000D03*
%TO.N,GND*%
X224300000Y-56375000D03*
%TD*%
D11*
%TO.N,GNDA*%
%TO.C,J8*%
X39500000Y-130000000D03*
D12*
%TO.N,Net-(J18-Pin_13)*%
X39500000Y-133500000D03*
%TO.N,Net-(J8-SIG)*%
X39500000Y-137000000D03*
%TO.N,+24V*%
X39500000Y-140500000D03*
%TD*%
D16*
%TO.N,GNDA*%
%TO.C,J21*%
X224300000Y-49375000D03*
D12*
%TO.N,Net-(J21-GND)*%
X224300000Y-45875000D03*
%TO.N,GND*%
X224300000Y-42375000D03*
%TD*%
D31*
%TO.N,GND*%
%TO.C,D6*%
X173450000Y-63025000D03*
D32*
%TO.N,Net-(D6-A)*%
X170910000Y-63025000D03*
%TD*%
D16*
%TO.N,GNDA*%
%TO.C,J28*%
X224300000Y-147375000D03*
D12*
%TO.N,Net-(J28-GND)*%
X224300000Y-143875000D03*
%TO.N,GND*%
X224300000Y-140375000D03*
%TD*%
D31*
%TO.N,GND*%
%TO.C,D5*%
X123200000Y-38300000D03*
D32*
%TO.N,Net-(D5-A)*%
X120660000Y-38300000D03*
%TD*%
D34*
%TO.N,GND*%
X149000000Y-77000000D03*
X149000000Y-79000000D03*
X148000000Y-80000000D03*
X158000000Y-76000000D03*
X157000000Y-76000000D03*
X159000000Y-78000000D03*
X158000000Y-78000000D03*
X159000000Y-79000000D03*
X158000000Y-80000000D03*
X157000000Y-80000000D03*
X156000000Y-79000000D03*
X156000000Y-78000000D03*
X156000000Y-77000000D03*
X154000000Y-77000000D03*
X154000000Y-76000000D03*
X154000000Y-78000000D03*
X154000000Y-79000000D03*
X153000000Y-80000000D03*
X152000000Y-80000000D03*
X152000000Y-80000000D03*
X151000000Y-79000000D03*
X151000000Y-78000000D03*
X151000000Y-77000000D03*
X151000000Y-76000000D03*
X147000000Y-80000000D03*
X148000000Y-78000000D03*
X147000000Y-78000000D03*
X148000000Y-76000000D03*
X147000000Y-76000000D03*
X146000000Y-80000000D03*
X146000000Y-79000000D03*
X146000000Y-78000000D03*
X146000000Y-77000000D03*
X146000000Y-76000000D03*
X172000000Y-100500000D03*
X172000000Y-99500000D03*
X173000000Y-98500000D03*
X174000000Y-97500000D03*
X175000000Y-96500000D03*
X175000000Y-95500000D03*
X175000000Y-94500000D03*
X174000000Y-93500000D03*
X173000000Y-92500000D03*
X172000000Y-91500000D03*
X172000000Y-90500000D03*
X172000000Y-89500000D03*
X173000000Y-88500000D03*
X174000000Y-87500000D03*
X175000000Y-86500000D03*
X175000000Y-85500000D03*
X175000000Y-84500000D03*
X174000000Y-83500000D03*
X173000000Y-82500000D03*
X172000000Y-81500000D03*
X172000000Y-80500000D03*
X172000000Y-79500000D03*
X173000000Y-78500000D03*
X174000000Y-77500000D03*
X175000000Y-76500000D03*
X175000000Y-75500000D03*
X175000000Y-74500000D03*
X176000000Y-103000000D03*
X176000000Y-102000000D03*
X176000000Y-101000000D03*
X177000000Y-100000000D03*
X178000000Y-99000000D03*
X179000000Y-98000000D03*
X179000000Y-97000000D03*
X179000000Y-96000000D03*
X178000000Y-95000000D03*
X177000000Y-94000000D03*
X176000000Y-93000000D03*
X176000000Y-92000000D03*
X176000000Y-91000000D03*
X177000000Y-90000000D03*
X178000000Y-89000000D03*
X179000000Y-88000000D03*
X179000000Y-87000000D03*
X179000000Y-86000000D03*
X178000000Y-85000000D03*
X177000000Y-84000000D03*
X176000000Y-83000000D03*
X176000000Y-82000000D03*
X176000000Y-81000000D03*
X177000000Y-80000000D03*
X178000000Y-79000000D03*
X179000000Y-78000000D03*
X179000000Y-77000000D03*
X179000000Y-76000000D03*
%TO.N,GNDA*%
X41500000Y-40500000D03*
X43000000Y-40500000D03*
X43000000Y-39000000D03*
X41500000Y-39000000D03*
X60000000Y-80000000D03*
X61500000Y-80000000D03*
X61500000Y-78500000D03*
X60000000Y-78500000D03*
X56500000Y-131000000D03*
X58000000Y-131000000D03*
X58000000Y-129500000D03*
X56500000Y-129500000D03*
X48500000Y-129500000D03*
X50000000Y-129500000D03*
X50000000Y-128000000D03*
X48500000Y-128000000D03*
X35000000Y-150000000D03*
X36500000Y-150000000D03*
X36500000Y-148500000D03*
X35000000Y-148500000D03*
X35000000Y-147000000D03*
X36500000Y-147000000D03*
X36500000Y-145500000D03*
X35000000Y-145500000D03*
X48000000Y-70000000D03*
X49500000Y-70000000D03*
X49500000Y-68500000D03*
X48000000Y-68500000D03*
X48000000Y-54000000D03*
X49500000Y-54000000D03*
X49500000Y-52500000D03*
X48000000Y-52500000D03*
X51000000Y-57000000D03*
X52500000Y-57000000D03*
X52500000Y-55500000D03*
X51000000Y-55500000D03*
X51000000Y-54000000D03*
X52500000Y-54000000D03*
X52500000Y-52500000D03*
X51000000Y-52500000D03*
%TO.N,GND*%
X132500000Y-112500000D03*
X132500000Y-115000000D03*
X132500000Y-115000000D03*
X132500000Y-117500000D03*
X132500000Y-120000000D03*
X135000000Y-120000000D03*
X137500000Y-120000000D03*
X140000000Y-120000000D03*
X142500000Y-120000000D03*
X145000000Y-120000000D03*
X147500000Y-120000000D03*
X152500000Y-120000000D03*
X150000000Y-120000000D03*
X155000000Y-120000000D03*
X157500000Y-120000000D03*
X160000000Y-120000000D03*
X162500000Y-120000000D03*
X165000000Y-120000000D03*
X165000000Y-117500000D03*
X165000000Y-115000000D03*
X165000000Y-112500000D03*
X165000000Y-112500000D03*
X165000000Y-110000000D03*
X162500000Y-110000000D03*
X160000000Y-110000000D03*
X157500000Y-110000000D03*
X155000000Y-110000000D03*
X152500000Y-110000000D03*
X150000000Y-110000000D03*
X147500000Y-110000000D03*
X145000000Y-110000000D03*
X142500000Y-110000000D03*
X140000000Y-110000000D03*
X137500000Y-110000000D03*
X135000000Y-110000000D03*
X132500000Y-110000000D03*
X162000000Y-113000000D03*
X161000000Y-113000000D03*
X160000000Y-113000000D03*
X161000000Y-115000000D03*
X160000000Y-115000000D03*
X162000000Y-117000000D03*
X161000000Y-117000000D03*
X160000000Y-117000000D03*
X159000000Y-117000000D03*
X159000000Y-116000000D03*
X159000000Y-115000000D03*
X159000000Y-114000000D03*
X159000000Y-113000000D03*
X157000000Y-117000000D03*
X156000000Y-116000000D03*
X155000000Y-115000000D03*
X156000000Y-115000000D03*
X157000000Y-114000000D03*
X156000000Y-113000000D03*
X155000000Y-113000000D03*
X154000000Y-117000000D03*
X154000000Y-116000000D03*
X154000000Y-115000000D03*
X154000000Y-114000000D03*
X154000000Y-113000000D03*
X150000000Y-113000000D03*
X151000000Y-113000000D03*
X152000000Y-114000000D03*
X152000000Y-116000000D03*
X152000000Y-115000000D03*
X151000000Y-117000000D03*
X150000000Y-117000000D03*
X149000000Y-116000000D03*
X149000000Y-115000000D03*
X149000000Y-114000000D03*
X147000000Y-113000000D03*
X147000000Y-114000000D03*
X147000000Y-115000000D03*
X147000000Y-117000000D03*
X147000000Y-116000000D03*
X146000000Y-115000000D03*
X145000000Y-114000000D03*
X144000000Y-117000000D03*
X144000000Y-116000000D03*
X144000000Y-115000000D03*
X144000000Y-114000000D03*
X144000000Y-113000000D03*
X141000000Y-115000000D03*
X142000000Y-115000000D03*
X140000000Y-113000000D03*
X141000000Y-113000000D03*
X142000000Y-113000000D03*
X142000000Y-116000000D03*
X142000000Y-117000000D03*
X141000000Y-117000000D03*
X140000000Y-117000000D03*
X139000000Y-116000000D03*
X139000000Y-115000000D03*
X139000000Y-114000000D03*
X137000000Y-117000000D03*
X135000000Y-117000000D03*
X137000000Y-113000000D03*
X135000000Y-113000000D03*
X136000000Y-117000000D03*
X136000000Y-116000000D03*
X136000000Y-114000000D03*
X136000000Y-115000000D03*
X136000000Y-113000000D03*
X136000000Y-86000000D03*
X137000000Y-86000000D03*
X138000000Y-85000000D03*
X138000000Y-84000000D03*
X137000000Y-83000000D03*
X136000000Y-83000000D03*
X135000000Y-86000000D03*
X135000000Y-85000000D03*
X135000000Y-84000000D03*
X135000000Y-83000000D03*
X135000000Y-82000000D03*
X135000000Y-81000000D03*
X135000000Y-80000000D03*
X133000000Y-84000000D03*
X132000000Y-84000000D03*
X131000000Y-84000000D03*
X130000000Y-86000000D03*
X129000000Y-86000000D03*
X128000000Y-86000000D03*
X127000000Y-86000000D03*
X126000000Y-86000000D03*
X125000000Y-86000000D03*
X124000000Y-86000000D03*
X123000000Y-86000000D03*
X122000000Y-84000000D03*
X121000000Y-84000000D03*
X120000000Y-84000000D03*
X118000000Y-80000000D03*
X118000000Y-81000000D03*
X118000000Y-82000000D03*
X118000000Y-84000000D03*
X118000000Y-83000000D03*
X118000000Y-85000000D03*
X118000000Y-86000000D03*
X117000000Y-86000000D03*
X116000000Y-86000000D03*
X115000000Y-85000000D03*
X115000000Y-84000000D03*
X116000000Y-83000000D03*
X117000000Y-83000000D03*
X171000000Y-148000000D03*
X170000000Y-147000000D03*
X169000000Y-146000000D03*
X170000000Y-146000000D03*
X170000000Y-146000000D03*
X171000000Y-145000000D03*
X170000000Y-144000000D03*
X169000000Y-144000000D03*
X168000000Y-148000000D03*
X168000000Y-147000000D03*
X168000000Y-146000000D03*
X168000000Y-145000000D03*
X168000000Y-144000000D03*
X165000000Y-146000000D03*
X166000000Y-144000000D03*
X165000000Y-144000000D03*
X164000000Y-144000000D03*
X164000000Y-146000000D03*
X166000000Y-148000000D03*
X165000000Y-148000000D03*
X164000000Y-148000000D03*
X163000000Y-148000000D03*
X163000000Y-147000000D03*
X163000000Y-146000000D03*
X163000000Y-145000000D03*
X163000000Y-144000000D03*
X148000000Y-146000000D03*
X149000000Y-146000000D03*
X150000000Y-145000000D03*
X149000000Y-144000000D03*
X159000000Y-148000000D03*
X159000000Y-147000000D03*
X159000000Y-146000000D03*
X159000000Y-145000000D03*
X161000000Y-144000000D03*
X160000000Y-144000000D03*
X160000000Y-144000000D03*
X159000000Y-144000000D03*
X158000000Y-144000000D03*
X157000000Y-144000000D03*
X155000000Y-144000000D03*
X155000000Y-145000000D03*
X155000000Y-146000000D03*
X155000000Y-147000000D03*
X154000000Y-148000000D03*
X153000000Y-148000000D03*
X152000000Y-147000000D03*
X152000000Y-146000000D03*
X152000000Y-145000000D03*
X152000000Y-144000000D03*
X148000000Y-144000000D03*
X147000000Y-148000000D03*
X147000000Y-146000000D03*
X147000000Y-147000000D03*
X147000000Y-145000000D03*
X147000000Y-144000000D03*
X145000000Y-148000000D03*
X145000000Y-147000000D03*
X145000000Y-146000000D03*
X145000000Y-145000000D03*
X145000000Y-144000000D03*
X144000000Y-145000000D03*
X143000000Y-146000000D03*
X142000000Y-145000000D03*
X141000000Y-144000000D03*
X141000000Y-145000000D03*
X141000000Y-146000000D03*
X141000000Y-147000000D03*
X141000000Y-148000000D03*
X138000000Y-144000000D03*
X139000000Y-147000000D03*
X136000000Y-144000000D03*
X135000000Y-146000000D03*
X139000000Y-145000000D03*
X135000000Y-147000000D03*
X136000000Y-148000000D03*
X138000000Y-148000000D03*
X137000000Y-144000000D03*
X135000000Y-145000000D03*
X139000000Y-146000000D03*
X137000000Y-148000000D03*
X131000000Y-148000000D03*
X132000000Y-148000000D03*
X133000000Y-148000000D03*
X133000000Y-144000000D03*
X132000000Y-144000000D03*
X131000000Y-144000000D03*
X130000000Y-147000000D03*
X130000000Y-146000000D03*
X130000000Y-145000000D03*
X124000000Y-148000000D03*
X123000000Y-147000000D03*
X124000000Y-144000000D03*
X123000000Y-145000000D03*
X122000000Y-146000000D03*
X121000000Y-146000000D03*
X120000000Y-148000000D03*
X120000000Y-147000000D03*
X120000000Y-146000000D03*
X120000000Y-145000000D03*
X120000000Y-144000000D03*
X116000000Y-144000000D03*
X115000000Y-144000000D03*
X114000000Y-144000000D03*
X117000000Y-145000000D03*
X117000000Y-146000000D03*
X117000000Y-147000000D03*
X116000000Y-148000000D03*
X115000000Y-148000000D03*
X114000000Y-148000000D03*
X113000000Y-147000000D03*
X113000000Y-146000000D03*
X113000000Y-145000000D03*
X153000000Y-87000000D03*
X153000000Y-88000000D03*
X153000000Y-89000000D03*
X153000000Y-91000000D03*
X157000000Y-93000000D03*
X156000000Y-93000000D03*
X155000000Y-93000000D03*
X154000000Y-93000000D03*
X153000000Y-93000000D03*
X152000000Y-93000000D03*
X151000000Y-93000000D03*
X150000000Y-93000000D03*
X149000000Y-93000000D03*
X148000000Y-92000000D03*
X148000000Y-91000000D03*
X149000000Y-90000000D03*
X149000000Y-89000000D03*
X150000000Y-88000000D03*
X150000000Y-87000000D03*
X151000000Y-86000000D03*
X151000000Y-85000000D03*
X158000000Y-92000000D03*
X158000000Y-91000000D03*
X157000000Y-90000000D03*
X157000000Y-89000000D03*
X156000000Y-88000000D03*
X156000000Y-87000000D03*
X155000000Y-86000000D03*
X155000000Y-85000000D03*
X154000000Y-84000000D03*
X153000000Y-84000000D03*
X152000000Y-84000000D03*
X156000000Y-122000000D03*
X153000000Y-122000000D03*
X155000000Y-121000000D03*
X154000000Y-121000000D03*
X161000000Y-139000000D03*
X160000000Y-139000000D03*
X159000000Y-139000000D03*
X158000000Y-139000000D03*
X157000000Y-139000000D03*
X156000000Y-139000000D03*
X155000000Y-139000000D03*
X162000000Y-139000000D03*
X162000000Y-138000000D03*
X162000000Y-137000000D03*
X163000000Y-136000000D03*
X163000000Y-135000000D03*
X164000000Y-130000000D03*
X164000000Y-131000000D03*
X164000000Y-132000000D03*
X164000000Y-133000000D03*
X164000000Y-134000000D03*
X164000000Y-129000000D03*
X163000000Y-128000000D03*
X162000000Y-129000000D03*
X162000000Y-128000000D03*
X161000000Y-127000000D03*
X160000000Y-127000000D03*
X159000000Y-129000000D03*
X159000000Y-128000000D03*
X159000000Y-127000000D03*
X158000000Y-126000000D03*
X157000000Y-126000000D03*
X156000000Y-129000000D03*
X156000000Y-128000000D03*
X156000000Y-127000000D03*
X156000000Y-126000000D03*
X156000000Y-125000000D03*
X156000000Y-124000000D03*
X156000000Y-123000000D03*
X154000000Y-139000000D03*
X154000000Y-138000000D03*
X154000000Y-137000000D03*
X153000000Y-136000000D03*
X152000000Y-135000000D03*
X152000000Y-134000000D03*
X151000000Y-133000000D03*
X150000000Y-132000000D03*
X150000000Y-131000000D03*
X150000000Y-130000000D03*
X151000000Y-129000000D03*
X152000000Y-129000000D03*
X153000000Y-131000000D03*
X153000000Y-130000000D03*
X153000000Y-129000000D03*
X153000000Y-128000000D03*
X153000000Y-127000000D03*
X153000000Y-126000000D03*
X153000000Y-125000000D03*
X153000000Y-124000000D03*
X153000000Y-123000000D03*
D35*
X100000000Y-140000000D03*
X101000000Y-139000000D03*
X102000000Y-138000000D03*
X103000000Y-137000000D03*
X104000000Y-138000000D03*
X104000000Y-139000000D03*
X105000000Y-140000000D03*
X105000000Y-141000000D03*
X106000000Y-142000000D03*
X107000000Y-142000000D03*
X108000000Y-141000000D03*
X108000000Y-140000000D03*
X107000000Y-139000000D03*
X107000000Y-138000000D03*
X106000000Y-137000000D03*
X106000000Y-136000000D03*
X107000000Y-136000000D03*
X108000000Y-136000000D03*
X109000000Y-136000000D03*
X110000000Y-136000000D03*
X110000000Y-135000000D03*
X109000000Y-134000000D03*
X108000000Y-133000000D03*
X107000000Y-132000000D03*
X106000000Y-131000000D03*
X105000000Y-130000000D03*
X104000000Y-129000000D03*
X103000000Y-128000000D03*
X102000000Y-127000000D03*
X101000000Y-126000000D03*
X100000000Y-125000000D03*
X99000000Y-140000000D03*
X99000000Y-139000000D03*
X99000000Y-138000000D03*
X99000000Y-137000000D03*
X99000000Y-136000000D03*
X99000000Y-135000000D03*
X99000000Y-134000000D03*
X99000000Y-133000000D03*
X99000000Y-133000000D03*
X99000000Y-132000000D03*
X99000000Y-131000000D03*
X99000000Y-130000000D03*
X99000000Y-129000000D03*
X99000000Y-128000000D03*
X99000000Y-127000000D03*
X99000000Y-126000000D03*
X99000000Y-125000000D03*
D34*
X109000000Y-82000000D03*
X108000000Y-83000000D03*
X107000000Y-83000000D03*
X99000000Y-83000000D03*
X95000000Y-80000000D03*
X103000000Y-82000000D03*
X93000000Y-83000000D03*
X93000000Y-79000000D03*
X94000000Y-82000000D03*
X95000000Y-83000000D03*
X97000000Y-80000000D03*
X96000000Y-83000000D03*
X100000000Y-82000000D03*
X98000000Y-83000000D03*
X104000000Y-83000000D03*
X102000000Y-83000000D03*
X105000000Y-83000000D03*
X94000000Y-80000000D03*
X100000000Y-77000000D03*
X99000000Y-76000000D03*
X98000000Y-77000000D03*
X97000000Y-76000000D03*
X95000000Y-76000000D03*
X94000000Y-76000000D03*
%TO.N,GNDA*%
X87250000Y-137500000D03*
X87250000Y-139500000D03*
X87250000Y-141500000D03*
D36*
%TO.N,*%
X227000000Y-157000000D03*
X35000000Y-157000000D03*
X35000000Y-35000000D03*
X227000000Y-35000000D03*
D37*
X138000000Y-96000000D03*
D38*
%TO.N,+24V*%
X64100000Y-50900000D03*
X126000000Y-40500000D03*
X125500000Y-57400000D03*
D39*
%TO.N,GND*%
X122000000Y-47500000D03*
X121000000Y-62500000D03*
X206000000Y-49000000D03*
X139500000Y-34500000D03*
X195000000Y-40500000D03*
X113500000Y-60500000D03*
X206500000Y-54000000D03*
X122000000Y-46500000D03*
X146500000Y-65000000D03*
X173000000Y-64500000D03*
X176000000Y-58000000D03*
X189000000Y-64500000D03*
X172000000Y-64500000D03*
X121000000Y-45500000D03*
X119500000Y-60000000D03*
X123500000Y-41000000D03*
X205500000Y-43500000D03*
X197000000Y-65500000D03*
X107500000Y-51500000D03*
X94000000Y-63000000D03*
X133500000Y-59500000D03*
X154000000Y-64000000D03*
D34*
X68500000Y-37000000D03*
D39*
X122500000Y-41000000D03*
X197000000Y-63500000D03*
X139500000Y-33500000D03*
X98000000Y-64000000D03*
X137500000Y-59500000D03*
X140500000Y-69500000D03*
X138500000Y-35500000D03*
X97000000Y-64000000D03*
D38*
X194550000Y-76837500D03*
D39*
X138500000Y-60500000D03*
X97000000Y-63000000D03*
X144000000Y-47500000D03*
X75500000Y-84462500D03*
X123500000Y-35500000D03*
X194000000Y-40500000D03*
X206000000Y-51000000D03*
X181500000Y-43000000D03*
X175500000Y-35000000D03*
X201500000Y-37000000D03*
X123500000Y-36500000D03*
X181500000Y-45000000D03*
X155500000Y-41000000D03*
X187750000Y-40500000D03*
X156500000Y-43000000D03*
X92000000Y-60500000D03*
X145500000Y-59500000D03*
X191000000Y-40500000D03*
D38*
X212000000Y-85000000D03*
D39*
X181500000Y-44000000D03*
X133500000Y-62500000D03*
X84000000Y-46500000D03*
X197000000Y-64500000D03*
X134500000Y-62500000D03*
X180000000Y-59000000D03*
X144000000Y-45500000D03*
X111000000Y-50500000D03*
X156500000Y-42000000D03*
X68800000Y-99084846D03*
X202500000Y-36000000D03*
X81000000Y-99462500D03*
X122500000Y-36500000D03*
X176500000Y-34000000D03*
X205000000Y-49000000D03*
D38*
X212000000Y-73750000D03*
D34*
X74500000Y-38500000D03*
D39*
X142500000Y-69500000D03*
X206500000Y-44500000D03*
X144000000Y-43500000D03*
X140500000Y-68000000D03*
X107500000Y-50500000D03*
X189750000Y-40500000D03*
X189000000Y-65500000D03*
X71500000Y-49000000D03*
X202500000Y-37000000D03*
X201500000Y-36000000D03*
X181500000Y-49000000D03*
X175500000Y-36000000D03*
X121000000Y-61500000D03*
X193000000Y-40500000D03*
X205500000Y-42500000D03*
X176000000Y-59000000D03*
X116000000Y-60000000D03*
X181500000Y-47000000D03*
X121000000Y-47500000D03*
X106500000Y-51500000D03*
X123500000Y-40000000D03*
X206500000Y-52500000D03*
X144000000Y-48500000D03*
X156500000Y-41000000D03*
X93000000Y-60500000D03*
X138500000Y-34500000D03*
X69000000Y-103362500D03*
X188750000Y-40500000D03*
X189000000Y-63500000D03*
X122000000Y-45500000D03*
X180000000Y-58000000D03*
X92000000Y-63000000D03*
D34*
X74500000Y-40000000D03*
D39*
X181500000Y-48000000D03*
X144000000Y-46500000D03*
X188500000Y-60000000D03*
X112500000Y-59500000D03*
X94000000Y-60500000D03*
X72500000Y-51000000D03*
X181500000Y-46000000D03*
D34*
X141500000Y-99000000D03*
D39*
X189000000Y-59000000D03*
X146500000Y-64000000D03*
X91000000Y-63000000D03*
D34*
X68500000Y-38500000D03*
D39*
X176500000Y-36000000D03*
X84000000Y-47500000D03*
X91000000Y-60500000D03*
X118500000Y-60000000D03*
X139500000Y-35500000D03*
X138500000Y-33500000D03*
X111000000Y-51500000D03*
X81000000Y-70400000D03*
D34*
X74500000Y-37000000D03*
D39*
X205500000Y-52500000D03*
X154000000Y-65000000D03*
X85000000Y-47500000D03*
X85000000Y-46500000D03*
X176500000Y-35000000D03*
X206500000Y-43500000D03*
X76700000Y-74700000D03*
X192000000Y-40500000D03*
X173000000Y-61500000D03*
X122500000Y-40000000D03*
X144500000Y-60500000D03*
X142500000Y-68000000D03*
D38*
X193250000Y-64000000D03*
D39*
X71500000Y-50000000D03*
X172000000Y-61500000D03*
X206000000Y-50000000D03*
D34*
X68500000Y-40000000D03*
D39*
X206500000Y-42500000D03*
X134500000Y-59500000D03*
X112500000Y-60500000D03*
X205500000Y-44500000D03*
X121000000Y-46500000D03*
X71500000Y-51000000D03*
X144000000Y-44500000D03*
X175500000Y-34000000D03*
X72500000Y-50000000D03*
X154000000Y-63000000D03*
X72500000Y-49000000D03*
X155500000Y-42000000D03*
X113500000Y-59500000D03*
X98000000Y-63000000D03*
X93000000Y-63000000D03*
X115000000Y-60000000D03*
X155500000Y-43000000D03*
X146500000Y-63000000D03*
X122500000Y-35500000D03*
X106500000Y-50500000D03*
D38*
%TO.N,+5V*%
X75500000Y-86537500D03*
X79300000Y-75000000D03*
D39*
X68000000Y-96253295D03*
X68000000Y-102000000D03*
D38*
X66700000Y-88700000D03*
%TO.N,+3.3V*%
X167200000Y-72900000D03*
X114400000Y-75600000D03*
D39*
X199600000Y-102125000D03*
D38*
X110000000Y-99300000D03*
D39*
%TO.N,Net-(U7-REFIO)*%
X71500000Y-86537500D03*
X70000000Y-96000000D03*
%TO.N,Net-(U7-REFCAP)*%
X68950000Y-95950000D03*
X68000000Y-86537500D03*
D34*
%TO.N,GNDA*%
X66000000Y-140500000D03*
X50000000Y-119500000D03*
X59000000Y-120500000D03*
X87500000Y-156000000D03*
X81000000Y-156000000D03*
X70000000Y-145500000D03*
X63500000Y-67500000D03*
X72500000Y-138000000D03*
X76000000Y-141500000D03*
X68500000Y-146500000D03*
X52500000Y-120500000D03*
X65000000Y-69000000D03*
X55000000Y-119500000D03*
X59000000Y-67500000D03*
D39*
X58982500Y-89005000D03*
D34*
X89000000Y-156000000D03*
X66000000Y-137000000D03*
X52500000Y-124000000D03*
X83250000Y-141500000D03*
X72500000Y-145500000D03*
X75500000Y-138000000D03*
X69500000Y-67500000D03*
X65000000Y-67500000D03*
X68000000Y-67500000D03*
X46500000Y-124000000D03*
X83500000Y-146500000D03*
X83250000Y-137500000D03*
X60500000Y-67500000D03*
X49500000Y-125000000D03*
X74500000Y-141500000D03*
D39*
X58982500Y-84505000D03*
D34*
X81000000Y-146500000D03*
X77000000Y-146500000D03*
X85000000Y-145500000D03*
X57500000Y-120500000D03*
X73000000Y-140500000D03*
X71000000Y-137000000D03*
X78000000Y-155000000D03*
X86500000Y-146500000D03*
X54000000Y-124000000D03*
X76500000Y-156000000D03*
X62000000Y-67500000D03*
D38*
X56500000Y-144000000D03*
D34*
X45000000Y-125000000D03*
X63500000Y-69000000D03*
X79500000Y-155000000D03*
X66500000Y-67500000D03*
X55500000Y-125000000D03*
X47000000Y-120500000D03*
X69500000Y-69000000D03*
X75500000Y-145500000D03*
X79500000Y-146500000D03*
X84500000Y-155000000D03*
X60500000Y-69000000D03*
X71500000Y-141500000D03*
X85250000Y-137500000D03*
X48000000Y-124000000D03*
X86000000Y-156000000D03*
X67500000Y-138000000D03*
X78500000Y-141500000D03*
X48500000Y-119500000D03*
X85250000Y-139500000D03*
X67500000Y-140500000D03*
X62000000Y-69000000D03*
X80000000Y-140500000D03*
X59000000Y-69000000D03*
X74000000Y-137000000D03*
X66500000Y-69000000D03*
X85250000Y-141500000D03*
X74000000Y-146500000D03*
X68000000Y-69000000D03*
X69000000Y-137000000D03*
X69000000Y-140500000D03*
X83250000Y-139500000D03*
D39*
%TO.N,Net-(U5A-+)*%
X202801000Y-85692703D03*
X202801000Y-78875000D03*
%TO.N,Net-(U5C-+)*%
X194450000Y-94987500D03*
X195300000Y-85125000D03*
%TO.N,Net-(U5B-+)*%
X205000000Y-81000000D03*
X205800000Y-84625000D03*
%TO.N,Net-(U5D-+)*%
X202550000Y-86375000D03*
X202800000Y-92875000D03*
%TO.N,Net-(U6B-+)*%
X194800000Y-142912500D03*
X203700000Y-130475000D03*
X203100000Y-138475000D03*
X194900000Y-138475000D03*
%TO.N,Net-(U6D-+)*%
X194800000Y-131700000D03*
X194800000Y-122125000D03*
%TO.N,Net-(U6C-+)*%
X202700000Y-130475000D03*
X203050000Y-121875000D03*
%TO.N,Net-(U6A-+)*%
X205762500Y-142875000D03*
X205412500Y-131775000D03*
D38*
%TO.N,Net-(D3-A2)*%
X90100000Y-51190000D03*
X100895000Y-48905000D03*
D40*
%TO.N,Net-(J2-SIG)*%
X55300000Y-91600000D03*
%TO.N,Net-(J3-SIG)*%
X52800000Y-96500000D03*
%TO.N,Net-(J4-SIG)*%
X48900000Y-103200000D03*
%TO.N,Net-(J5-SIG)*%
X45600000Y-95600000D03*
D39*
%TO.N,Net-(J21-GND)*%
X211050000Y-87375000D03*
X211050000Y-78875000D03*
X219500000Y-78000000D03*
X220000000Y-46500000D03*
%TO.N,Net-(J22-GND)*%
X193050000Y-97875000D03*
X218000000Y-82500000D03*
X218500000Y-61000000D03*
X199800000Y-97875000D03*
X193500000Y-83425000D03*
X200050000Y-94875000D03*
%TO.N,Net-(J23-GND)*%
X207673000Y-83227000D03*
X207673000Y-80000000D03*
X217000000Y-74500000D03*
X217000000Y-80000000D03*
%TO.N,Net-(J24-GND)*%
X198550000Y-89175000D03*
X211050000Y-89125000D03*
X211050000Y-94625000D03*
X198550000Y-87375000D03*
%TO.N,Net-(J25-GND)*%
X220000000Y-102000000D03*
X200300000Y-142875000D03*
X205431656Y-129092095D03*
X218500000Y-127600000D03*
%TO.N,Net-(J26-GND)*%
X200500000Y-117000000D03*
X200300000Y-122125000D03*
X199687500Y-133075000D03*
%TO.N,Net-(J27-GND)*%
X212750000Y-130129000D03*
X201838500Y-128838500D03*
X202100000Y-123878000D03*
X211300000Y-121875000D03*
%TO.N,Net-(J28-GND)*%
X205300000Y-144475000D03*
X205135500Y-133075000D03*
D40*
%TO.N,Net-(J9-SIG)*%
X67700000Y-132200000D03*
D39*
X65323000Y-99621612D03*
D34*
X56200000Y-142300000D03*
D39*
%TO.N,Net-(J8-SIG)*%
X67096562Y-99113347D03*
D40*
X69400000Y-123100000D03*
D39*
%TO.N,Net-(U3-VOUTB)*%
X198800000Y-118125000D03*
X198800000Y-110625000D03*
%TO.N,Net-(U3-VOUTC)*%
X198040500Y-91616500D03*
X198300000Y-102125000D03*
%TO.N,Net-(U3-VOUTA)*%
X202800000Y-76625000D03*
X203600000Y-100800000D03*
%TO.N,Net-(U3-VOUTD)*%
X197897610Y-139848000D03*
X197650000Y-108995000D03*
%TO.N,Net-(U3-VOUTE)*%
X191800000Y-81000000D03*
X196050000Y-81375000D03*
X197650000Y-103255000D03*
X191800000Y-77125000D03*
%TO.N,Net-(U3-VOUTF)*%
X196500000Y-137275000D03*
X197200000Y-111279509D03*
%TO.N,Net-(U3-VOUTG)*%
X202800000Y-94875000D03*
X202200000Y-100625000D03*
%TO.N,Net-(U3-VOUTH)*%
X196000000Y-118625000D03*
X196350000Y-108995000D03*
%TO.N,Net-(U5A--)*%
X208300000Y-76837500D03*
X208300000Y-86375000D03*
%TO.N,Net-(U5C--)*%
X197059500Y-92875000D03*
X197050000Y-84125000D03*
%TO.N,Net-(U5B--)*%
X200050000Y-76875000D03*
X200300000Y-83875000D03*
%TO.N,Net-(U5D--)*%
X208300000Y-89875000D03*
X199300000Y-86652000D03*
X199300000Y-89875000D03*
X208300000Y-92875000D03*
%TO.N,Net-(U6B--)*%
X200300000Y-140875000D03*
X202281000Y-129703000D03*
%TO.N,Net-(U6D--)*%
X198500000Y-132700000D03*
X200300000Y-119875000D03*
%TO.N,Net-(U6C--)*%
X208550000Y-123000000D03*
X208550000Y-119875000D03*
X201050000Y-123375000D03*
X200752000Y-129825000D03*
%TO.N,Net-(U6A--)*%
X207900000Y-132475000D03*
X208300000Y-140875000D03*
%TO.N,Net-(A1-D6)*%
X82700000Y-117400000D03*
X76400000Y-105800000D03*
%TO.N,Net-(A1-D8)*%
X71000000Y-104800000D03*
X75500000Y-112500000D03*
%TO.N,Net-(A1-D5)*%
X72500000Y-103500000D03*
X79700000Y-117100000D03*
%TO.N,SCK_OUT*%
X176800000Y-135600000D03*
X200300000Y-105875000D03*
X177800000Y-106375000D03*
X200250000Y-108995000D03*
%TO.N,Net-(A1-D7)*%
X81800000Y-116127000D03*
X75000000Y-98500000D03*
%TO.N,MOSI_OUT*%
X201564069Y-109139069D03*
X201550000Y-106625000D03*
X179600000Y-109000000D03*
X177687500Y-129487500D03*
%TO.N,NSS_OUT*%
X201550000Y-105125000D03*
X176600000Y-105200000D03*
X200250000Y-103255000D03*
D40*
%TO.N,Net-(J18-Pin_1)*%
X60500000Y-94300000D03*
D39*
%TO.N,Net-(J18-Pin_3)*%
X57900000Y-51800000D03*
D40*
X55100000Y-95100000D03*
%TO.N,Net-(J18-Pin_5)*%
X50500000Y-103000000D03*
D34*
%TO.N,Net-(J18-Pin_7)*%
X70400000Y-80100000D03*
D40*
X46900000Y-99900000D03*
D34*
%TO.N,Net-(J18-Pin_9)*%
X74000000Y-90400000D03*
%TO.N,Net-(J18-Pin_15)*%
X87700000Y-129500000D03*
X49500000Y-142400000D03*
D39*
X64500000Y-99000000D03*
D40*
X64000000Y-130900000D03*
D34*
%TO.N,Net-(J18-Pin_11)*%
X48100000Y-116500000D03*
X82250000Y-121850000D03*
D40*
%TO.N,Net-(J18-Pin_13)*%
X66000000Y-117200000D03*
D34*
X81275000Y-131025000D03*
X83400000Y-128900000D03*
D39*
X66100000Y-99100000D03*
D38*
%TO.N,Net-(U5E-V+)*%
X191250000Y-70250000D03*
X202712500Y-54000000D03*
X202000000Y-67250000D03*
X207175000Y-84750000D03*
X191500000Y-133500000D03*
%TD*%
M02*
