%TF.GenerationSoftware,KiCad,Pcbnew,9.0.6-9.0.6~ubuntu24.04.1*%
%TF.CreationDate,2025-12-02T17:26:15+01:00*%
%TF.ProjectId,HVAC_STM32F7_PCB,48564143-5f53-4544-9d33-3246375f5043,rev?*%
%TF.SameCoordinates,Original*%
%TF.FileFunction,Soldermask,Top*%
%TF.FilePolarity,Negative*%
%FSLAX46Y46*%
G04 Gerber Fmt 4.6, Leading zero omitted, Abs format (unit mm)*
G04 Created by KiCad (PCBNEW 9.0.6-9.0.6~ubuntu24.04.1) date 2025-12-02 17:26:15*
%MOMM*%
%LPD*%
G01*
G04 APERTURE LIST*
G04 Aperture macros list*
%AMRoundRect*
0 Rectangle with rounded corners*
0 $1 Rounding radius*
0 $2 $3 $4 $5 $6 $7 $8 $9 X,Y pos of 4 corners*
0 Add a 4 corners polygon primitive as box body*
4,1,4,$2,$3,$4,$5,$6,$7,$8,$9,$2,$3,0*
0 Add four circle primitives for the rounded corners*
1,1,$1+$1,$2,$3*
1,1,$1+$1,$4,$5*
1,1,$1+$1,$6,$7*
1,1,$1+$1,$8,$9*
0 Add four rect primitives between the rounded corners*
20,1,$1+$1,$2,$3,$4,$5,0*
20,1,$1+$1,$4,$5,$6,$7,0*
20,1,$1+$1,$6,$7,$8,$9,0*
20,1,$1+$1,$8,$9,$2,$3,0*%
%AMOutline4P*
0 Free polygon, 4 corners , with rotation*
0 The origin of the aperture is its center*
0 number of corners: always 4*
0 $1 to $8 corner X, Y*
0 $9 Rotation angle, in degrees counterclockwise*
0 create outline with 4 corners*
4,1,4,$1,$2,$3,$4,$5,$6,$7,$8,$1,$2,$9*%
G04 Aperture macros list end*
%ADD10C,2.000000*%
%ADD11RoundRect,0.250000X-1.550000X0.650000X-1.550000X-0.650000X1.550000X-0.650000X1.550000X0.650000X0*%
%ADD12O,3.600000X1.800000*%
%ADD13RoundRect,0.250000X0.450000X-0.350000X0.450000X0.350000X-0.450000X0.350000X-0.450000X-0.350000X0*%
%ADD14RoundRect,0.250000X-0.650000X-1.550000X0.650000X-1.550000X0.650000X1.550000X-0.650000X1.550000X0*%
%ADD15O,1.800000X3.600000*%
%ADD16R,1.500000X2.400000*%
%ADD17C,2.780000*%
%ADD18RoundRect,0.250000X0.350000X0.450000X-0.350000X0.450000X-0.350000X-0.450000X0.350000X-0.450000X0*%
%ADD19RoundRect,0.250000X-0.337500X-0.475000X0.337500X-0.475000X0.337500X0.475000X-0.337500X0.475000X0*%
%ADD20RoundRect,0.250000X-0.450000X0.350000X-0.450000X-0.350000X0.450000X-0.350000X0.450000X0.350000X0*%
%ADD21RoundRect,0.100000X0.637500X0.100000X-0.637500X0.100000X-0.637500X-0.100000X0.637500X-0.100000X0*%
%ADD22RoundRect,0.250000X0.475000X-0.337500X0.475000X0.337500X-0.475000X0.337500X-0.475000X-0.337500X0*%
%ADD23RoundRect,0.250000X1.550000X-0.650000X1.550000X0.650000X-1.550000X0.650000X-1.550000X-0.650000X0*%
%ADD24R,5.400000X2.900000*%
%ADD25RoundRect,0.250001X0.612499X0.899999X-0.612499X0.899999X-0.612499X-0.899999X0.612499X-0.899999X0*%
%ADD26Outline4P,-2.150000X-1.800000X2.150000X-0.800000X2.150000X0.800000X-2.150000X1.800000X270.000000*%
%ADD27Outline4P,-2.150000X-1.800000X2.150000X-0.800000X2.150000X0.800000X-2.150000X1.800000X90.000000*%
%ADD28RoundRect,0.250000X0.550000X-0.550000X0.550000X0.550000X-0.550000X0.550000X-0.550000X-0.550000X0*%
%ADD29C,1.600000*%
%ADD30RoundRect,0.250000X0.400000X1.450000X-0.400000X1.450000X-0.400000X-1.450000X0.400000X-1.450000X0*%
%ADD31R,1.700000X1.700000*%
%ADD32C,1.700000*%
%ADD33RoundRect,0.250000X-0.475000X0.337500X-0.475000X-0.337500X0.475000X-0.337500X0.475000X0.337500X0*%
%ADD34RoundRect,0.249999X-0.850001X0.850001X-0.850001X-0.850001X0.850001X-0.850001X0.850001X0.850001X0*%
%ADD35C,2.200000*%
%ADD36R,2.200000X2.000000*%
%ADD37O,2.200000X2.000000*%
%ADD38C,3.540000*%
%ADD39RoundRect,0.249999X-0.737501X-2.450001X0.737501X-2.450001X0.737501X2.450001X-0.737501X2.450001X0*%
%ADD40RoundRect,0.250000X-0.550000X0.550000X-0.550000X-0.550000X0.550000X-0.550000X0.550000X0.550000X0*%
%ADD41RoundRect,0.250000X-1.500000X-0.900000X1.500000X-0.900000X1.500000X0.900000X-1.500000X0.900000X0*%
%ADD42C,2.600000*%
%ADD43R,3.500000X3.500000*%
%ADD44RoundRect,0.750000X-1.000000X0.750000X-1.000000X-0.750000X1.000000X-0.750000X1.000000X0.750000X0*%
%ADD45RoundRect,0.875000X-0.875000X0.875000X-0.875000X-0.875000X0.875000X-0.875000X0.875000X0.875000X0*%
%ADD46R,1.800000X1.800000*%
%ADD47C,1.800000*%
%ADD48RoundRect,0.250001X-0.899999X0.612499X-0.899999X-0.612499X0.899999X-0.612499X0.899999X0.612499X0*%
%ADD49RoundRect,0.051250X-0.153750X0.733750X-0.153750X-0.733750X0.153750X-0.733750X0.153750X0.733750X0*%
%ADD50RoundRect,0.250001X-0.462499X-1.074999X0.462499X-1.074999X0.462499X1.074999X-0.462499X1.074999X0*%
%ADD51RoundRect,0.250000X0.650000X1.550000X-0.650000X1.550000X-0.650000X-1.550000X0.650000X-1.550000X0*%
%ADD52RoundRect,0.075000X-0.075000X0.662500X-0.075000X-0.662500X0.075000X-0.662500X0.075000X0.662500X0*%
%ADD53RoundRect,0.250000X-0.350000X-0.450000X0.350000X-0.450000X0.350000X0.450000X-0.350000X0.450000X0*%
%ADD54R,1.270000X0.610000*%
%ADD55R,3.810000X3.910000*%
%ADD56R,1.020000X0.610000*%
%ADD57RoundRect,0.250000X-2.050000X-0.300000X2.050000X-0.300000X2.050000X0.300000X-2.050000X0.300000X0*%
%ADD58RoundRect,0.250002X-4.449998X-5.149998X4.449998X-5.149998X4.449998X5.149998X-4.449998X5.149998X0*%
%ADD59R,2.400000X1.500000*%
%ADD60RoundRect,0.250001X-0.612499X-0.899999X0.612499X-0.899999X0.612499X0.899999X-0.612499X0.899999X0*%
G04 APERTURE END LIST*
D10*
%TO.C,TP4*%
X157500000Y-62750000D03*
%TD*%
%TO.C,TP3*%
X209250000Y-61000000D03*
%TD*%
%TO.C,TP1*%
X157500000Y-54750000D03*
%TD*%
%TO.C,TP2*%
X198750000Y-58750000D03*
%TD*%
D11*
%TO.C,J4*%
X39500000Y-62000000D03*
D12*
X39500000Y-65500000D03*
X39500000Y-69000000D03*
X39500000Y-72500000D03*
%TD*%
D13*
%TO.C,R9*%
X202800000Y-94875000D03*
X202800000Y-92875000D03*
%TD*%
D14*
%TO.C,J9*%
X45000000Y-149000000D03*
D15*
X48500000Y-149000000D03*
X52000000Y-149000000D03*
X55500000Y-149000000D03*
%TD*%
D16*
%TO.C,L2*%
X131300000Y-48400000D03*
X136800000Y-48400000D03*
%TD*%
D17*
%TO.C,F1*%
X82137500Y-40190000D03*
X82137500Y-43590000D03*
X92057500Y-40190000D03*
X92057500Y-43590000D03*
%TD*%
D18*
%TO.C,R4*%
X87000000Y-49000000D03*
X85000000Y-49000000D03*
%TD*%
D19*
%TO.C,C11*%
X58925000Y-84500000D03*
X61000000Y-84500000D03*
%TD*%
D20*
%TO.C,R7*%
X191800000Y-76875000D03*
X191800000Y-78875000D03*
%TD*%
D13*
%TO.C,R1*%
X78000000Y-101500000D03*
X78000000Y-99500000D03*
%TD*%
D21*
%TO.C,U5*%
X204662500Y-87325000D03*
X204662500Y-86675000D03*
X204662500Y-86025000D03*
X204662500Y-85375000D03*
X204662500Y-84725000D03*
X204662500Y-84075000D03*
X204662500Y-83425000D03*
X198937500Y-83425000D03*
X198937500Y-84075000D03*
X198937500Y-84725000D03*
X198937500Y-85375000D03*
X198937500Y-86025000D03*
X198937500Y-86675000D03*
X198937500Y-87325000D03*
%TD*%
D22*
%TO.C,C20*%
X194550000Y-78912500D03*
X194550000Y-76837500D03*
%TD*%
D20*
%TO.C,RG4*%
X208300000Y-92875000D03*
X208300000Y-94875000D03*
%TD*%
D23*
%TO.C,J27*%
X224300000Y-133375000D03*
D12*
X224300000Y-129875000D03*
X224300000Y-126375000D03*
%TD*%
D24*
%TO.C,L1*%
X168600000Y-46975000D03*
X168600000Y-56875000D03*
%TD*%
D20*
%TO.C,RF3*%
X200050000Y-76875000D03*
X200050000Y-78875000D03*
%TD*%
%TO.C,RG7*%
X208550000Y-119875000D03*
X208550000Y-121875000D03*
%TD*%
%TO.C,RF4*%
X211050000Y-92875000D03*
X211050000Y-94875000D03*
%TD*%
D25*
%TO.C,C4*%
X136562500Y-53450000D03*
X132237500Y-53450000D03*
%TD*%
D21*
%TO.C,U6*%
X205412500Y-133075000D03*
X205412500Y-132425000D03*
X205412500Y-131775000D03*
X205412500Y-131125000D03*
X205412500Y-130475000D03*
X205412500Y-129825000D03*
X205412500Y-129175000D03*
X199687500Y-129175000D03*
X199687500Y-129825000D03*
X199687500Y-130475000D03*
X199687500Y-131125000D03*
X199687500Y-131775000D03*
X199687500Y-132425000D03*
X199687500Y-133075000D03*
%TD*%
D19*
%TO.C,C32*%
X207175000Y-84750000D03*
X209250000Y-84750000D03*
%TD*%
D26*
%TO.C,D1*%
X150200000Y-56650000D03*
D27*
X150200000Y-63050000D03*
%TD*%
D25*
%TO.C,C1*%
X136462500Y-42450000D03*
X132137500Y-42450000D03*
%TD*%
%TO.C,C6*%
X174162500Y-43000000D03*
X169837500Y-43000000D03*
%TD*%
D28*
%TO.C,C2*%
X141100000Y-38102651D03*
D29*
X141100000Y-34302651D03*
%TD*%
D11*
%TO.C,J7*%
X39500000Y-113000000D03*
D12*
X39500000Y-116500000D03*
X39500000Y-120000000D03*
X39500000Y-123500000D03*
%TD*%
D20*
%TO.C,R13*%
X203050000Y-140875000D03*
X203050000Y-142875000D03*
%TD*%
D30*
%TO.C,F2*%
X195225000Y-37500000D03*
X190775000Y-37500000D03*
%TD*%
D11*
%TO.C,J6*%
X39500000Y-96000000D03*
D12*
X39500000Y-99500000D03*
X39500000Y-103000000D03*
X39500000Y-106500000D03*
%TD*%
D20*
%TO.C,R6*%
X191700000Y-92950000D03*
X191700000Y-94950000D03*
%TD*%
D31*
%TO.C,J18*%
X63520000Y-62540000D03*
D32*
X63520000Y-60000000D03*
X66060000Y-62540000D03*
X66060000Y-60000000D03*
X68600000Y-62540000D03*
X68600000Y-60000000D03*
X71140000Y-62540000D03*
X71140000Y-60000000D03*
X73680000Y-62540000D03*
X73680000Y-60000000D03*
X76220000Y-62540000D03*
X76220000Y-60000000D03*
X78760000Y-62540000D03*
X78760000Y-60000000D03*
X81300000Y-62540000D03*
X81300000Y-60000000D03*
%TD*%
D33*
%TO.C,C17*%
X203550000Y-105087500D03*
X203550000Y-107162500D03*
%TD*%
D34*
%TO.C,D4*%
X93500000Y-47960000D03*
D35*
X93500000Y-50500000D03*
%TD*%
D36*
%TO.C,A1*%
X173550000Y-102815000D03*
D37*
X173550000Y-105355000D03*
X173550000Y-107895000D03*
X173550000Y-110435000D03*
X173550000Y-112975000D03*
X173550000Y-115515000D03*
X173550000Y-118055000D03*
X173550000Y-120595000D03*
X173550000Y-125675000D03*
X173550000Y-128215000D03*
X173550000Y-130755000D03*
X173550000Y-133295000D03*
X173550000Y-135835000D03*
X173550000Y-138375000D03*
X125290000Y-138375000D03*
X125290000Y-135835000D03*
X125290000Y-133295000D03*
X125290000Y-130755000D03*
X125290000Y-128215000D03*
X125290000Y-125675000D03*
X125290000Y-123135000D03*
X125290000Y-120595000D03*
X125290000Y-116535000D03*
X125290000Y-113995000D03*
X125290000Y-111455000D03*
X125290000Y-108915000D03*
X125290000Y-106375000D03*
X125290000Y-103835000D03*
X125290000Y-101295000D03*
X125290000Y-98755000D03*
X125290000Y-96215000D03*
X125290000Y-93675000D03*
D38*
X186550000Y-74375000D03*
X64550000Y-74375000D03*
X186550000Y-146375000D03*
X64550000Y-146375000D03*
%TD*%
D20*
%TO.C,RG5*%
X197550000Y-140875000D03*
X197550000Y-142875000D03*
%TD*%
D18*
%TO.C,R16*%
X135100000Y-56250000D03*
X133100000Y-56250000D03*
%TD*%
D39*
%TO.C,C29*%
X198112500Y-42250000D03*
X203387500Y-42250000D03*
%TD*%
D20*
%TO.C,RF7*%
X211300000Y-119875000D03*
X211300000Y-121875000D03*
%TD*%
D22*
%TO.C,C12*%
X68000000Y-86537500D03*
X68000000Y-84462500D03*
%TD*%
D28*
%TO.C,C5*%
X178300000Y-38602651D03*
D29*
X178300000Y-34802651D03*
%TD*%
D23*
%TO.C,J24*%
X224300000Y-91375000D03*
D12*
X224300000Y-87875000D03*
X224300000Y-84375000D03*
%TD*%
D40*
%TO.C,C8*%
X184550000Y-55422349D03*
D29*
X184550000Y-59222349D03*
%TD*%
D20*
%TO.C,R8*%
X202800000Y-76875000D03*
X202800000Y-78875000D03*
%TD*%
D11*
%TO.C,J3*%
X39550000Y-45000000D03*
D12*
X39550000Y-48500000D03*
X39550000Y-52000000D03*
X39550000Y-55500000D03*
%TD*%
D19*
%TO.C,C30*%
X202462500Y-50500000D03*
X204537500Y-50500000D03*
%TD*%
D33*
%TO.C,C9*%
X75500000Y-84462500D03*
X75500000Y-86537500D03*
%TD*%
D41*
%TO.C,D3*%
X75400000Y-50190000D03*
X80800000Y-50190000D03*
%TD*%
D42*
%TO.C,SW1*%
X101700000Y-41690000D03*
X106400000Y-41690000D03*
X111100000Y-41690000D03*
%TD*%
D22*
%TO.C,C25*%
X205800000Y-142912500D03*
X205800000Y-140837500D03*
%TD*%
D43*
%TO.C,J1*%
X71507500Y-45400000D03*
D44*
X71507500Y-39400000D03*
D45*
X66807500Y-42400000D03*
%TD*%
D22*
%TO.C,C24*%
X205800000Y-121912500D03*
X205800000Y-119837500D03*
%TD*%
D40*
%TO.C,C15*%
X109200000Y-47900000D03*
D29*
X109200000Y-51700000D03*
%TD*%
D20*
%TO.C,RF2*%
X200050000Y-92875000D03*
X200050000Y-94875000D03*
%TD*%
%TO.C,R15*%
X167350000Y-60625000D03*
X167350000Y-62625000D03*
%TD*%
D46*
%TO.C,D7*%
X134600000Y-61050000D03*
D47*
X132060000Y-61050000D03*
%TD*%
D22*
%TO.C,C11X7R1*%
X71500000Y-86537500D03*
X71500000Y-84462500D03*
%TD*%
D48*
%TO.C,C27*%
X118800000Y-57437500D03*
X118800000Y-61762500D03*
%TD*%
D11*
%TO.C,J5*%
X39500000Y-79000000D03*
D12*
X39500000Y-82500000D03*
X39500000Y-86000000D03*
X39500000Y-89500000D03*
%TD*%
D19*
%TO.C,C28*%
X197962500Y-36500000D03*
X200037500Y-36500000D03*
%TD*%
D40*
%TO.C,C3*%
X141600000Y-54847349D03*
D29*
X141600000Y-58647349D03*
%TD*%
D22*
%TO.C,C13*%
X65000000Y-86537500D03*
X65000000Y-84462500D03*
%TD*%
D49*
%TO.C,U3*%
X200250000Y-103255000D03*
X199600000Y-103255000D03*
X198950000Y-103255000D03*
X198300000Y-103255000D03*
X197650000Y-103255000D03*
X197000000Y-103255000D03*
X196350000Y-103255000D03*
X196350000Y-108995000D03*
X197000000Y-108995000D03*
X197650000Y-108995000D03*
X198300000Y-108995000D03*
X198950000Y-108995000D03*
X199600000Y-108995000D03*
X200250000Y-108995000D03*
%TD*%
D20*
%TO.C,RG6*%
X197550000Y-119875000D03*
X197550000Y-121875000D03*
%TD*%
%TO.C,R12*%
X203050000Y-119875000D03*
X203050000Y-121875000D03*
%TD*%
D50*
%TO.C,FB1*%
X121712500Y-57500000D03*
X124687500Y-57500000D03*
%TD*%
D51*
%TO.C,J2*%
X58482500Y-38107500D03*
D15*
X54982500Y-38107500D03*
X51482500Y-38107500D03*
X47982500Y-38107500D03*
%TD*%
D52*
%TO.C,U7*%
X72000000Y-97637500D03*
X71500000Y-97637500D03*
X71000000Y-97637500D03*
X70500000Y-97637500D03*
X70000000Y-97637500D03*
X69500000Y-97637500D03*
X69000000Y-97637500D03*
X68500000Y-97637500D03*
X68000000Y-97637500D03*
X67500000Y-97637500D03*
X67000000Y-97637500D03*
X66500000Y-97637500D03*
X66000000Y-97637500D03*
X65500000Y-97637500D03*
X65000000Y-97637500D03*
X64500000Y-97637500D03*
X64000000Y-97637500D03*
X63500000Y-97637500D03*
X63000000Y-97637500D03*
X63000000Y-103362500D03*
X63500000Y-103362500D03*
X64000000Y-103362500D03*
X64500000Y-103362500D03*
X65000000Y-103362500D03*
X65500000Y-103362500D03*
X66000000Y-103362500D03*
X66500000Y-103362500D03*
X67000000Y-103362500D03*
X67500000Y-103362500D03*
X68000000Y-103362500D03*
X68500000Y-103362500D03*
X69000000Y-103362500D03*
X69500000Y-103362500D03*
X70000000Y-103362500D03*
X70500000Y-103362500D03*
X71000000Y-103362500D03*
X71500000Y-103362500D03*
X72000000Y-103362500D03*
%TD*%
D53*
%TO.C,R14*%
X115300000Y-38400000D03*
X117300000Y-38400000D03*
%TD*%
D20*
%TO.C,RG3*%
X197300000Y-76875000D03*
X197300000Y-78875000D03*
%TD*%
D13*
%TO.C,R3*%
X207650000Y-106237500D03*
X207650000Y-104237500D03*
%TD*%
D23*
%TO.C,J23*%
X224300000Y-77375000D03*
D12*
X224300000Y-73875000D03*
X224300000Y-70375000D03*
%TD*%
D54*
%TO.C,Q1*%
X97535000Y-50810000D03*
X97535000Y-47000000D03*
X97535000Y-48270000D03*
X97535000Y-49540000D03*
D55*
X100895000Y-48905000D03*
D56*
X103000000Y-47000000D03*
X103000000Y-48270000D03*
X103000000Y-49540000D03*
X103000000Y-50810000D03*
%TD*%
D23*
%TO.C,J26*%
X224300000Y-119375000D03*
D12*
X224300000Y-115875000D03*
X224300000Y-112375000D03*
%TD*%
D23*
%TO.C,J25*%
X224300000Y-105375000D03*
D12*
X224300000Y-101875000D03*
X224300000Y-98375000D03*
%TD*%
D20*
%TO.C,R10*%
X192050000Y-140875000D03*
X192050000Y-142875000D03*
%TD*%
D57*
%TO.C,U2*%
X178275000Y-43425000D03*
X178275000Y-45125000D03*
X178275000Y-46825000D03*
D58*
X187425000Y-46825000D03*
D57*
X178275000Y-48525000D03*
X178275000Y-50225000D03*
%TD*%
D20*
%TO.C,RF8*%
X211300000Y-140875000D03*
X211300000Y-142875000D03*
%TD*%
D48*
%TO.C,C16*%
X115500000Y-57437500D03*
X115500000Y-61762500D03*
%TD*%
D59*
%TO.C,L3*%
X117200000Y-49150000D03*
X117200000Y-54650000D03*
%TD*%
D20*
%TO.C,RF5*%
X200300000Y-140875000D03*
X200300000Y-142875000D03*
%TD*%
D23*
%TO.C,J22*%
X224300000Y-63375000D03*
D12*
X224300000Y-59875000D03*
X224300000Y-56375000D03*
%TD*%
D26*
%TO.C,D2*%
X193100000Y-57200000D03*
D27*
X193100000Y-63600000D03*
%TD*%
D11*
%TO.C,J8*%
X39500000Y-130000000D03*
D12*
X39500000Y-133500000D03*
X39500000Y-137000000D03*
X39500000Y-140500000D03*
%TD*%
D20*
%TO.C,RF6*%
X200300000Y-119875000D03*
X200300000Y-121875000D03*
%TD*%
D22*
%TO.C,C14*%
X209900000Y-106275000D03*
X209900000Y-104200000D03*
%TD*%
D20*
%TO.C,RG2*%
X197300000Y-92875000D03*
X197300000Y-94875000D03*
%TD*%
%TO.C,RG1*%
X208300000Y-76837500D03*
X208300000Y-78837500D03*
%TD*%
D23*
%TO.C,J21*%
X224300000Y-49375000D03*
D12*
X224300000Y-45875000D03*
X224300000Y-42375000D03*
%TD*%
D46*
%TO.C,D6*%
X173450000Y-63025000D03*
D47*
X170910000Y-63025000D03*
%TD*%
D19*
%TO.C,C33*%
X207712500Y-130750000D03*
X209787500Y-130750000D03*
%TD*%
D22*
%TO.C,C23*%
X194800000Y-121912500D03*
X194800000Y-119837500D03*
%TD*%
%TO.C,C21*%
X205550000Y-94912500D03*
X205550000Y-92837500D03*
%TD*%
D13*
%TO.C,R17*%
X198750000Y-50500000D03*
X198750000Y-48500000D03*
%TD*%
D20*
%TO.C,R11*%
X192050000Y-119875000D03*
X192050000Y-121875000D03*
%TD*%
D57*
%TO.C,U1*%
X140775000Y-43125000D03*
X140775000Y-44825000D03*
X140775000Y-46525000D03*
D58*
X149925000Y-46525000D03*
D57*
X140775000Y-48225000D03*
X140775000Y-49925000D03*
%TD*%
D22*
%TO.C,C18*%
X205550000Y-78875000D03*
X205550000Y-76800000D03*
%TD*%
%TO.C,C10*%
X81000000Y-101537500D03*
X81000000Y-99462500D03*
%TD*%
D20*
%TO.C,RG8*%
X208550000Y-140875000D03*
X208550000Y-142875000D03*
%TD*%
D23*
%TO.C,J28*%
X224300000Y-147375000D03*
D12*
X224300000Y-143875000D03*
X224300000Y-140375000D03*
%TD*%
D60*
%TO.C,C26*%
X115137500Y-46600000D03*
X119462500Y-46600000D03*
%TD*%
D48*
%TO.C,C7*%
X177950000Y-53962500D03*
X177950000Y-58287500D03*
%TD*%
D22*
%TO.C,C19*%
X194450000Y-94987500D03*
X194450000Y-92912500D03*
%TD*%
D20*
%TO.C,RF1*%
X211050000Y-76837500D03*
X211050000Y-78837500D03*
%TD*%
D53*
%TO.C,R2*%
X58982500Y-89005000D03*
X60982500Y-89005000D03*
%TD*%
D19*
%TO.C,C31*%
X202712500Y-54000000D03*
X204787500Y-54000000D03*
%TD*%
D46*
%TO.C,D5*%
X123200000Y-38300000D03*
D47*
X120660000Y-38300000D03*
%TD*%
D22*
%TO.C,C22*%
X194800000Y-142912500D03*
X194800000Y-140837500D03*
%TD*%
M02*
